<svg xmlns="http://www.w3.org/2000/svg" width="683.343" height="44.15" viewBox="0 0 683.343 44.15">
  <defs>
    <style>
      .cls-1 {
        fill: #32a1e0;
        fill-rule: evenodd;
      }
    </style>
  </defs>
  <path id="St._John_Educational_Foundation_copy_2" data-name="St. John Educational Foundation copy 2" class="cls-1" d="M171.312,8479.91q-0.216-1.8-.312-3.24a30.848,30.848,0,0,0-4.632-1.44,20.1,20.1,0,0,0-4.056-.43,12.178,12.178,0,0,0-4.344.72,9.97,9.97,0,0,0-3.24,1.95,8.092,8.092,0,0,0-2.04,2.89,9.087,9.087,0,0,0-.7,3.58,7.964,7.964,0,0,0,1.176,4.59,9.667,9.667,0,0,0,2.928,2.79,19,19,0,0,0,3.792,1.78c1.359,0.46,2.623.96,3.792,1.49a9.745,9.745,0,0,1,2.928,1.97,4.37,4.37,0,0,1,1.176,3.24,5.45,5.45,0,0,1-.336,1.88,4.255,4.255,0,0,1-1.008,1.58,5.024,5.024,0,0,1-1.728,1.09,7.129,7.129,0,0,1-2.544.4,10.8,10.8,0,0,1-3.048-.38,6.415,6.415,0,0,1-2.328-1.22,8.006,8.006,0,0,1-1.776-2.16,17.393,17.393,0,0,1-1.392-3.15,1.561,1.561,0,0,0-.48-0.74,1.39,1.39,0,0,0-.864-0.22,3.119,3.119,0,0,0-1.1.19q0.383,1.875.7,3.87t0.456,4.05a23.575,23.575,0,0,0,4.128,1.48,21.3,21.3,0,0,0,5.664.68,13.772,13.772,0,0,0,4.944-.79,9.838,9.838,0,0,0,3.408-2.11,8.116,8.116,0,0,0,1.968-3.05,10.369,10.369,0,0,0,.624-3.55,7.849,7.849,0,0,0-1.224-4.56,10.411,10.411,0,0,0-3.072-2.93,20.643,20.643,0,0,0-3.984-1.92c-1.425-.51-2.753-1.04-3.984-1.58a11.983,11.983,0,0,1-3.072-1.9,3.616,3.616,0,0,1-1.224-2.85,3.927,3.927,0,0,1,1.608-3.44,6.648,6.648,0,0,1,3.912-1.12,8.152,8.152,0,0,1,4.68,1.2,8.419,8.419,0,0,1,2.856,3.93,1.3,1.3,0,0,0,.384.55,1.382,1.382,0,0,0,.96.27,2.765,2.765,0,0,0,.912-0.15Q171.528,8481.71,171.312,8479.91Zm16.295,24.29a3.646,3.646,0,0,1-1.248.27,2.659,2.659,0,0,1-.84-0.12,1.025,1.025,0,0,1-.576-0.56,3.891,3.891,0,0,1-.312-1.27,21.141,21.141,0,0,1-.1-2.28v-11.85h4.608a0.807,0.807,0,0,0,.792-0.44,5.4,5.4,0,0,0,.216-1.96h-5.616v-5h-1.008a1.832,1.832,0,0,0-1.272.68,6.639,6.639,0,0,0-1.176,1.77,5.132,5.132,0,0,1-1.776,2.23,4.185,4.185,0,0,1-2.4.75,0.517,0.517,0,0,0-.576.29,1.557,1.557,0,0,0-.1.48v1.2h2.88v13.2a7.51,7.51,0,0,0,.432,2.76,4.346,4.346,0,0,0,1.152,1.7,3.982,3.982,0,0,0,1.608.86,7.052,7.052,0,0,0,1.848.24,8.973,8.973,0,0,0,3.192-.57,12.3,12.3,0,0,0,3.528-2.4,1.5,1.5,0,0,0-1.008-1.01,1.7,1.7,0,0,0-.816.29A6.567,6.567,0,0,1,187.607,8504.2Zm7.128,1.9a3.4,3.4,0,0,0,2.52,1.05,3.345,3.345,0,0,0,2.472-1.05,3.523,3.523,0,0,0,1.032-2.55,3.582,3.582,0,0,0-1.032-2.59,3.345,3.345,0,0,0-2.472-1.05,3.4,3.4,0,0,0-2.52,1.05,3.574,3.574,0,0,0-1.032,2.59A3.515,3.515,0,0,0,194.735,8506.1Zm24.551-1.54a20.7,20.7,0,0,1-.216,3.1,11.609,11.609,0,0,1-.744,2.69,12.562,12.562,0,0,1-1.392,2.47,18.539,18.539,0,0,1-2.208,2.49,0.838,0.838,0,0,0,.024,1.2,7.61,7.61,0,0,0,.648.63,55.938,55.938,0,0,0,4.872-3.72,14.529,14.529,0,0,0,3.048-3.63,13.773,13.773,0,0,0,1.56-4.29,31.036,31.036,0,0,0,.456-5.74v-20.78a3.543,3.543,0,0,1,.072-0.79,0.982,0.982,0,0,1,.384-0.56,2.667,2.667,0,0,1,.912-0.4,12.16,12.16,0,0,1,1.608-.32,0.724,0.724,0,0,0,.48-0.81c0-.1-0.008-0.24-0.024-0.43a4.942,4.942,0,0,0-.072-0.53c-1.025.06-2.112,0.12-3.264,0.17s-2.177.07-3.072,0.07c-0.929,0-1.976-.03-3.144-0.07s-2.264-.11-3.288-0.17a1.372,1.372,0,0,0-.1.53v0.43a0.723,0.723,0,0,0,.48.81,12.194,12.194,0,0,1,1.608.32,2.4,2.4,0,0,1,.888.4,1.179,1.179,0,0,1,.384.56,2.691,2.691,0,0,1,.1.79v25.58Zm12.408-3.91a9.82,9.82,0,0,0,2.256,3.43,10.511,10.511,0,0,0,3.528,2.26,12.512,12.512,0,0,0,4.608.81,12.25,12.25,0,0,0,4.512-.81,11.091,11.091,0,0,0,3.576-2.26,10.084,10.084,0,0,0,2.352-3.43,11.1,11.1,0,0,0,.84-4.34,11.685,11.685,0,0,0-.792-4.35,9.857,9.857,0,0,0-2.28-3.45,10.4,10.4,0,0,0-3.552-2.28,12.324,12.324,0,0,0-4.608-.82,12.043,12.043,0,0,0-4.512.82,10.381,10.381,0,0,0-5.88,5.73,11.078,11.078,0,0,0-.84,4.35A11.67,11.67,0,0,0,231.694,8500.65Zm6.336-11.04a3.763,3.763,0,0,1,3.624-2.09,4.6,4.6,0,0,1,4.176,2.69,14.53,14.53,0,0,1,1.488,7.06,12.428,12.428,0,0,1-1.08,5.73,3.775,3.775,0,0,1-3.624,2.04,4.585,4.585,0,0,1-4.2-2.64,14.529,14.529,0,0,1-1.464-7.05A12.616,12.616,0,0,1,238.03,8489.61Zm30.263,16.78v-0.48a0.579,0.579,0,0,0-.528-0.63,4.088,4.088,0,0,1-1.728-.57,1.35,1.35,0,0,1-.384-1.06v-8.59a5.748,5.748,0,0,1,1.536-4.35,5.187,5.187,0,0,1,3.7-1.46,2.458,2.458,0,0,1,2.232,1.08,7.753,7.753,0,0,1,.7,3.91v9.41a1.307,1.307,0,0,1-.408,1.06,4.223,4.223,0,0,1-1.7.57,0.579,0.579,0,0,0-.528.63v0.48a0.95,0.95,0,0,0,.1.43c0.832-.07,1.7-0.12,2.592-0.17s1.856-.07,2.88-0.07c1.248,0,2.288.02,3.12,0.07s1.664,0.1,2.5.17a4.7,4.7,0,0,0,.1-0.91,0.528,0.528,0,0,0-.168-0.46,1.025,1.025,0,0,0-.36-0.17,7.159,7.159,0,0,1-2.136-.62,1.111,1.111,0,0,1-.552-1.01v-11.71a6.541,6.541,0,0,0-1.68-4.9,6.323,6.323,0,0,0-4.608-1.63,7.05,7.05,0,0,0-3.888,1.22,13.962,13.962,0,0,0-3.408,3.24v-12.43a14.9,14.9,0,0,1,.144-2.37,8.5,8.5,0,0,0,.144-1.37,0.658,0.658,0,0,0-.768-0.72,8.732,8.732,0,0,0-1.488.24,22.877,22.877,0,0,1-2.3.38c-0.352.03-.736,0.07-1.152,0.1s-0.832.05-1.248,0.07-0.808.03-1.176,0.05-0.648.02-.84,0.02a0.927,0.927,0,0,0-.1.41v0.36a0.687,0.687,0,0,0,.624.77,2.834,2.834,0,0,1,2.256.89,4.027,4.027,0,0,1,.48,2.18v25.15a1.19,1.19,0,0,1-.576,1.08,6.169,6.169,0,0,1-2.112.6,1.025,1.025,0,0,0-.36.17,0.528,0.528,0,0,0-.168.46,4.7,4.7,0,0,0,.1.91c0.8-.07,1.624-0.12,2.472-0.17s1.9-.07,3.144-0.07c1.024,0,1.984.02,2.88,0.07s1.76,0.1,2.592.17A0.95,0.95,0,0,0,268.293,8506.39Zm39.408-14.45a6.541,6.541,0,0,0-1.68-4.9,6.323,6.323,0,0,0-4.608-1.63,6.932,6.932,0,0,0-3.888,1.25,14.251,14.251,0,0,0-3.408,3.26,15.506,15.506,0,0,1,.144-2.4,8.819,8.819,0,0,0,.144-1.39,0.658,0.658,0,0,0-.768-0.72,8.732,8.732,0,0,0-1.488.24,22.877,22.877,0,0,1-2.3.38c-0.352.04-.736,0.07-1.152,0.1s-0.832.06-1.248,0.07-0.808.03-1.176,0.05-0.648.02-.84,0.02a0.927,0.927,0,0,0-.1.41v0.36a0.722,0.722,0,0,0,.624.77,2.878,2.878,0,0,1,2.208.91,3.884,3.884,0,0,1,.528,2.21v12.67a1.147,1.147,0,0,1-.576,1.06,7.439,7.439,0,0,1-2.112.62,1.025,1.025,0,0,0-.36.17,0.528,0.528,0,0,0-.168.46,4.523,4.523,0,0,0,.024.5,3.306,3.306,0,0,0,.072.41c0.8-.07,1.624-0.12,2.472-0.17s1.9-.07,3.144-0.07c1.024,0,1.984.02,2.88,0.07s1.76,0.1,2.592.17a2.871,2.871,0,0,0,.1-0.91,0.579,0.579,0,0,0-.528-0.63,4.378,4.378,0,0,1-1.68-.57,1.27,1.27,0,0,1-.432-1.06v-8.59a5.748,5.748,0,0,1,1.536-4.35,5.187,5.187,0,0,1,3.7-1.46,2.458,2.458,0,0,1,2.232,1.08,7.753,7.753,0,0,1,.7,3.91v9.41a1.27,1.27,0,0,1-.432,1.06,4.378,4.378,0,0,1-1.68.57,0.579,0.579,0,0,0-.528.63,2.871,2.871,0,0,0,.1.91c0.832-.07,1.7-0.12,2.592-0.17s1.856-.07,2.88-0.07c1.248,0,2.288.02,3.12,0.07s1.664,0.1,2.5.17a3.306,3.306,0,0,0,.072-0.41,4.523,4.523,0,0,0,.024-0.5,0.528,0.528,0,0,0-.168-0.46,1.025,1.025,0,0,0-.36-0.17,6.169,6.169,0,0,1-2.112-.6,1.143,1.143,0,0,1-.576-1.03v-11.71Zm33.5-14.16a9.078,9.078,0,0,1,2.232.24,4.282,4.282,0,0,1,1.632.79,5.619,5.619,0,0,1,1.248,1.44,18.97,18.97,0,0,1,1.128,2.14,0.827,0.827,0,0,0,.768.43,1.664,1.664,0,0,0,.576-0.1c0.192-.06.368-0.13,0.528-0.19-0.256-.74-0.448-1.36-0.576-1.87s-0.24-1.04-.336-1.59a17.5,17.5,0,0,1-.336-2.13,6.4,6.4,0,0,0-.24-1.42,0.809,0.809,0,0,0-.768-0.43c-0.384,0-1.1.05-2.136,0.14s-2.28.15-3.72,0.15h-9.84c-0.768,0-1.68-.02-2.736-0.05s-2.272-.1-3.648-0.19a1.216,1.216,0,0,0-.1.45v0.46a0.766,0.766,0,0,0,.48.86q1.008,0.2,1.656.36a5.027,5.027,0,0,1,1.056.39,1.158,1.158,0,0,1,.552.53,1.859,1.859,0,0,1,.144.79v24.05a1.367,1.367,0,0,1-.792,1.34,10.78,10.78,0,0,1-2.616.72,0.623,0.623,0,0,0-.48.77v0.45a1.16,1.16,0,0,0,.1.51c0.96-.07,2.04-0.12,3.24-0.17s2.264-.07,3.192-0.07h10.9c0.416,0,.912.01,1.488,0.05s1.144,0.05,1.7.07,1.08,0.04,1.56.07,0.848,0.05,1.1.05a0.771,0.771,0,0,0,.768-0.39q0.048-.135.168-0.57t0.24-.99c0.08-.36.16-0.75,0.24-1.15l0.216-1.08a7.789,7.789,0,0,0,.288-1.01,6.159,6.159,0,0,1,.384-1.15c0.064-.22.136-0.45,0.216-0.67a7.02,7.02,0,0,0,.216-0.72c-0.224-.1-0.448-0.19-0.672-0.29a1.615,1.615,0,0,0-.576-0.14,0.651,0.651,0,0,0-.672.33c-0.384.77-.768,1.47-1.152,2.09a7.227,7.227,0,0,1-1.344,1.63,5.421,5.421,0,0,1-1.752,1.08,6.6,6.6,0,0,1-2.424.39h-2.016a17.929,17.929,0,0,1-4.224-.34,1.384,1.384,0,0,1-1.248-1.34v-10.75h6.768a1.239,1.239,0,0,1,1.176.64,8.615,8.615,0,0,1,.648,2.48,0.752,0.752,0,0,0,.912.67q0.144,0,.456-0.03a0.855,0.855,0,0,0,.456-0.12c-0.1-.99-0.16-1.88-0.192-2.66s-0.048-1.46-.048-2.04c0-.67.024-1.5,0.072-2.47s0.1-1.83.168-2.57a1.878,1.878,0,0,0-.456-0.07q-0.312-.03-0.456-0.03a1.4,1.4,0,0,0-.624.12,0.6,0.6,0,0,0-.288.51,9.63,9.63,0,0,1-.576,2.42,1.244,1.244,0,0,1-1.248.75H334.82v-11.57H341.2Zm34.368,0.72a22.413,22.413,0,0,1,.144-2.71,17.479,17.479,0,0,0,.144-2.09,0.682,0.682,0,0,0-.816-0.72,8.345,8.345,0,0,0-1.464.24,21.282,21.282,0,0,1-2.328.38c-0.352.03-.736,0.07-1.152,0.1s-0.832.05-1.248,0.07-0.8.03-1.152,0.05-0.64.02-.864,0.02a4.167,4.167,0,0,0-.1.77,0.628,0.628,0,0,0,.192.53,2.063,2.063,0,0,0,.48.24,3.088,3.088,0,0,1,2.256.89,3.89,3.89,0,0,1,.48,2.18v7.97q-1.488-.48-2.664-0.75a12.111,12.111,0,0,0-2.568-.26,9.186,9.186,0,0,0-3.6.79,11.757,11.757,0,0,0-3.456,2.28,12.1,12.1,0,0,0-2.616,3.63,10.8,10.8,0,0,0-1.032,4.77,13.2,13.2,0,0,0,.672,4.37,9.328,9.328,0,0,0,1.872,3.24,7.866,7.866,0,0,0,2.808,1.99,8.9,8.9,0,0,0,3.48.67,9.239,9.239,0,0,0,2.4-.28,7.66,7.66,0,0,0,1.9-.8,6.761,6.761,0,0,0,1.512-1.22,17.023,17.023,0,0,0,1.3-1.58v2.88a0.974,0.974,0,0,0,.12.55,0.671,0.671,0,0,0,.552.17,9,9,0,0,0,1.416-.22q1.032-.21,2.088-0.36a21.777,21.777,0,0,1,2.232-.22c0.88-.04,1.528-0.07,1.944-0.07a0.655,0.655,0,0,0,.1-0.38v-0.48a0.645,0.645,0,0,0-.672-0.63,6.186,6.186,0,0,1-1.3-.26,1.524,1.524,0,0,1-.72-0.46,1.278,1.278,0,0,1-.288-0.69,8.607,8.607,0,0,1-.048-0.99V8478.5Zm-5.424,19.77a6.3,6.3,0,0,1-.408,2.21,7.725,7.725,0,0,1-1.056,1.97,5.912,5.912,0,0,1-1.488,1.42,3.136,3.136,0,0,1-1.7.55,4.171,4.171,0,0,1-2.376-.67,5.107,5.107,0,0,1-1.608-1.85,10,10,0,0,1-.936-2.79,17.94,17.94,0,0,1-.312-3.43,12.435,12.435,0,0,1,1.2-5.97,3.944,3.944,0,0,1,3.7-2.19,6.9,6.9,0,0,1,4.992,2.21v8.54Zm14.447,2.45a5.732,5.732,0,0,0,6.288,6.43,6.971,6.971,0,0,0,3.888-1.22,13.962,13.962,0,0,0,3.408-3.24v3.46a0.974,0.974,0,0,0,.12.55,0.671,0.671,0,0,0,.552.17,9,9,0,0,0,1.416-.22q1.032-.21,2.088-0.36a21.777,21.777,0,0,1,2.232-.22c0.88-.04,1.528-0.07,1.944-0.07a0.655,0.655,0,0,0,.1-0.38v-0.48a0.585,0.585,0,0,0-.624-0.63,6.186,6.186,0,0,1-1.3-.26,1.524,1.524,0,0,1-.72-0.46,1.44,1.44,0,0,1-.312-0.69,5.771,5.771,0,0,1-.072-0.99v-15.98a0.616,0.616,0,0,0-.672-0.72,7.911,7.911,0,0,0-1.416.22q-1.032.21-2.088,0.36a9.855,9.855,0,0,1-1.08.14c-0.4.03-.8,0.06-1.2,0.07s-0.768.03-1.1,0.05-0.616.02-.84,0.02q-0.048.24-.072,0.48t-0.024.39a0.48,0.48,0,0,0,.216.48c0.144,0.06.312,0.13,0.5,0.19a5.71,5.71,0,0,1,1.272.26,1.7,1.7,0,0,1,.7.46,1.433,1.433,0,0,1,.312.7,5.727,5.727,0,0,1,.072.98v7.34a5.707,5.707,0,0,1-1.536,4.37,5.212,5.212,0,0,1-3.7,1.44,2.458,2.458,0,0,1-2.232-1.08,7.634,7.634,0,0,1-.7-3.86v-12.29a1.015,1.015,0,0,0-.12-0.53,0.611,0.611,0,0,0-.552-0.19,7.547,7.547,0,0,0-1.392.22q-1.008.21-2.112,0.36a9.855,9.855,0,0,1-1.08.14c-0.4.03-.792,0.06-1.176,0.07s-0.752.03-1.1,0.05-0.624.02-.816,0.02a1.284,1.284,0,0,0-.1.48v0.39a0.7,0.7,0,0,0,.672.67,2.928,2.928,0,0,1,1.992.72,3.038,3.038,0,0,1,.36,1.68v10.51Zm36.864-12.91a2.285,2.285,0,0,1,.84.77,6.275,6.275,0,0,1,.552,1.08c0.16,0.4.319,0.81,0.48,1.22a1.392,1.392,0,0,0,.36.55,0.928,0.928,0,0,0,.7.27q0.24,0,1.032-.03a14.015,14.015,0,0,0,1.656-.14,8.289,8.289,0,0,0,1.56-.36,0.809,0.809,0,0,0,.7-0.62,3.456,3.456,0,0,0-.48-1.61,5.464,5.464,0,0,0-1.512-1.68,8.739,8.739,0,0,0-2.664-1.32,12.933,12.933,0,0,0-3.936-.53,9.432,9.432,0,0,0-3.744.82,11.107,11.107,0,0,0-3.456,2.32,12.448,12.448,0,0,0-2.52,3.6,10.778,10.778,0,0,0-.984,4.64,11.765,11.765,0,0,0,.816,4.58,9.014,9.014,0,0,0,2.232,3.24,9.111,9.111,0,0,0,3.312,1.92,12.619,12.619,0,0,0,4.008.62,12.768,12.768,0,0,0,5.352-1,14.942,14.942,0,0,0,3.768-2.45,4.857,4.857,0,0,0-.528-0.99,0.772,0.772,0,0,0-.624-0.31,1.74,1.74,0,0,0-.864.29,8.116,8.116,0,0,1-2.472,1.13,10.314,10.314,0,0,1-2.28.26,5.9,5.9,0,0,1-4.92-2.21q-1.753-2.205-1.752-7a11.991,11.991,0,0,1,1.008-5.36,3.241,3.241,0,0,1,3.024-1.99A2.813,2.813,0,0,1,421.459,8487.81Zm31.511,17.33a3.88,3.88,0,0,1-.648.05,1.416,1.416,0,0,1-1.344-.87,3.292,3.292,0,0,1-.264-1.14c-0.048-.52-0.072-1.33-0.072-2.45v-8.42a8.486,8.486,0,0,0-.576-3.38,5.25,5.25,0,0,0-1.608-2.11,6.263,6.263,0,0,0-2.472-1.1,15.1,15.1,0,0,0-3.216-.31,9.973,9.973,0,0,0-3.1.53,12.253,12.253,0,0,0-2.952,1.41,9.483,9.483,0,0,0-2.232,2.04,3.849,3.849,0,0,0-.888,2.36,2.451,2.451,0,0,0,.1.84,0.379,0.379,0,0,0,.384.21,7.351,7.351,0,0,0,1.08-.09q0.6-.1,1.176-0.24c0.7-.2,1.288-0.38,1.752-0.56a1.219,1.219,0,0,0,.84-0.79,9.4,9.4,0,0,1,1.128-2.73,2.245,2.245,0,0,1,1.992-.87,2.559,2.559,0,0,1,2.448,1.32,8.012,8.012,0,0,1,.72,3.77,3.777,3.777,0,0,1-.144,1.37,1.076,1.076,0,0,1-.672.41c-0.256.06-.608,0.15-1.056,0.26s-0.88.22-1.3,0.31q-1.44.345-3.072,0.84a13.269,13.269,0,0,0-3,1.35,7.927,7.927,0,0,0-2.28,2.08,5.007,5.007,0,0,0-.912,3.03,4.136,4.136,0,0,0,.72,2.54,5.024,5.024,0,0,0,1.752,1.49,7.266,7.266,0,0,0,2.256.7,16.764,16.764,0,0,0,2.232.16,8.406,8.406,0,0,0,3.768-.79,5.744,5.744,0,0,0,2.568-2.71,4.024,4.024,0,0,0,1.344,2.45,4.75,4.75,0,0,0,3.312,1.05,8.635,8.635,0,0,0,1.9-.21,4.573,4.573,0,0,0,1.56-.65q0-1.2-.72-1.2A3.027,3.027,0,0,0,452.97,8505.14Zm-7.752-5.43a5.948,5.948,0,0,1-1.056,3.75,3.478,3.478,0,0,1-2.88,1.34,2.133,2.133,0,0,1-1.752-.74,4.294,4.294,0,0,1-.6-2.62,5.059,5.059,0,0,1,.408-2.13,4.244,4.244,0,0,1,1.1-1.49,5.426,5.426,0,0,1,1.656-.96,10.833,10.833,0,0,1,2.064-.55l1.056-.2v3.6Zm22.273,4.49a3.646,3.646,0,0,1-1.248.27,2.659,2.659,0,0,1-.84-0.12,1.025,1.025,0,0,1-.576-0.56,3.891,3.891,0,0,1-.312-1.27,20.883,20.883,0,0,1-.1-2.28v-11.85h4.608a0.807,0.807,0,0,0,.792-0.44,5.4,5.4,0,0,0,.216-1.96h-5.616v-5h-1.008a1.832,1.832,0,0,0-1.272.68,6.639,6.639,0,0,0-1.176,1.77,5.14,5.14,0,0,1-1.776,2.23,4.188,4.188,0,0,1-2.4.75,0.517,0.517,0,0,0-.576.29,1.528,1.528,0,0,0-.1.48v1.2H459v13.2a7.51,7.51,0,0,0,.432,2.76,4.346,4.346,0,0,0,1.152,1.7,3.975,3.975,0,0,0,1.608.86,7.047,7.047,0,0,0,1.848.24,8.973,8.973,0,0,0,3.192-.57,12.3,12.3,0,0,0,3.528-2.4,1.5,1.5,0,0,0-1.008-1.01,1.7,1.7,0,0,0-.816.29A6.567,6.567,0,0,1,467.491,8504.2Zm14.639,2.45c0.928,0.05,1.792.1,2.592,0.17a0.95,0.95,0,0,0,.1-0.43v-0.48a0.579,0.579,0,0,0-.528-0.63,8.129,8.129,0,0,1-2.064-.62,1.13,1.13,0,0,1-.624-1.06v-13.68a15.506,15.506,0,0,1,.144-2.4,8.819,8.819,0,0,0,.144-1.39,0.658,0.658,0,0,0-.768-0.72,8.732,8.732,0,0,0-1.488.24,22.877,22.877,0,0,1-2.3.38c-0.352.04-.736,0.07-1.152,0.1s-0.832.06-1.248,0.07-0.808.03-1.176,0.05-0.648.02-.84,0.02a0.927,0.927,0,0,0-.1.41v0.36a0.682,0.682,0,0,0,.624.77,2.835,2.835,0,0,1,2.256.91,4.192,4.192,0,0,1,.48,2.21v12.67a1.147,1.147,0,0,1-.576,1.06,7.439,7.439,0,0,1-2.112.62,1.025,1.025,0,0,0-.36.17,0.528,0.528,0,0,0-.168.46,4.7,4.7,0,0,0,.1.91c0.832-.07,1.7-0.12,2.592-0.17s1.968-.07,3.216-0.07S481.2,8506.6,482.13,8506.65Zm-5.784-25.73a3.611,3.611,0,0,0,4.968,0,3.787,3.787,0,0,0,0-5.04,3.638,3.638,0,0,0-4.968,0A3.719,3.719,0,0,0,476.346,8480.92Zm12.48,19.73a9.82,9.82,0,0,0,2.256,3.43,10.511,10.511,0,0,0,3.528,2.26,12.512,12.512,0,0,0,4.608.81,12.25,12.25,0,0,0,4.512-.81,11.091,11.091,0,0,0,3.576-2.26,10.084,10.084,0,0,0,2.352-3.43,11.1,11.1,0,0,0,.84-4.34,11.685,11.685,0,0,0-.792-4.35,9.857,9.857,0,0,0-2.28-3.45,10.4,10.4,0,0,0-3.552-2.28,12.324,12.324,0,0,0-4.608-.82,12.043,12.043,0,0,0-4.512.82,10.381,10.381,0,0,0-5.88,5.73,11.078,11.078,0,0,0-.84,4.35A11.67,11.67,0,0,0,488.826,8500.65Zm6.336-11.04a3.763,3.763,0,0,1,3.624-2.09,4.6,4.6,0,0,1,4.176,2.69,14.53,14.53,0,0,1,1.488,7.06,12.428,12.428,0,0,1-1.08,5.73,3.775,3.775,0,0,1-3.624,2.04,4.585,4.585,0,0,1-4.2-2.64,14.529,14.529,0,0,1-1.464-7.05A12.616,12.616,0,0,1,495.162,8489.61Zm41.207,2.33a6.541,6.541,0,0,0-1.68-4.9,6.323,6.323,0,0,0-4.608-1.63,6.932,6.932,0,0,0-3.888,1.25,14.251,14.251,0,0,0-3.408,3.26,15.506,15.506,0,0,1,.144-2.4,8.819,8.819,0,0,0,.144-1.39,0.658,0.658,0,0,0-.768-0.72,8.732,8.732,0,0,0-1.488.24,22.877,22.877,0,0,1-2.3.38c-0.352.04-.736,0.07-1.152,0.1s-0.832.06-1.248,0.07-0.808.03-1.176,0.05-0.648.02-.84,0.02a0.927,0.927,0,0,0-.1.41v0.36a0.722,0.722,0,0,0,.624.77,2.878,2.878,0,0,1,2.208.91,3.884,3.884,0,0,1,.528,2.21v12.67a1.147,1.147,0,0,1-.576,1.06,7.439,7.439,0,0,1-2.112.62,1.025,1.025,0,0,0-.36.17,0.528,0.528,0,0,0-.168.46,4.523,4.523,0,0,0,.024.5,3.306,3.306,0,0,0,.072.41c0.8-.07,1.624-0.12,2.472-0.17s1.9-.07,3.144-0.07c1.024,0,1.984.02,2.88,0.07s1.76,0.1,2.592.17a2.871,2.871,0,0,0,.1-0.91,0.579,0.579,0,0,0-.528-0.63,4.378,4.378,0,0,1-1.68-.57,1.27,1.27,0,0,1-.432-1.06v-8.59a5.748,5.748,0,0,1,1.536-4.35,5.187,5.187,0,0,1,3.7-1.46,2.458,2.458,0,0,1,2.232,1.08,7.753,7.753,0,0,1,.7,3.91v9.41a1.27,1.27,0,0,1-.432,1.06,4.378,4.378,0,0,1-1.68.57,0.579,0.579,0,0,0-.528.63,2.871,2.871,0,0,0,.1.91c0.832-.07,1.7-0.12,2.592-0.17s1.856-.07,2.88-0.07c1.248,0,2.288.02,3.12,0.07s1.664,0.1,2.5.17a3.306,3.306,0,0,0,.072-0.41,4.523,4.523,0,0,0,.024-0.5,0.528,0.528,0,0,0-.168-0.46,1.025,1.025,0,0,0-.36-0.17,6.169,6.169,0,0,1-2.112-.6,1.143,1.143,0,0,1-.576-1.03v-11.71Zm26.616,13.2a3.88,3.88,0,0,1-.648.05,1.416,1.416,0,0,1-1.344-.87,3.292,3.292,0,0,1-.264-1.14c-0.048-.52-0.072-1.33-0.072-2.45v-8.42a8.486,8.486,0,0,0-.576-3.38,5.25,5.25,0,0,0-1.608-2.11,6.263,6.263,0,0,0-2.472-1.1,15.1,15.1,0,0,0-3.216-.31,9.973,9.973,0,0,0-3.1.53,12.253,12.253,0,0,0-2.952,1.41,9.483,9.483,0,0,0-2.232,2.04,3.849,3.849,0,0,0-.888,2.36,2.451,2.451,0,0,0,.1.84,0.379,0.379,0,0,0,.384.21,7.351,7.351,0,0,0,1.08-.09q0.6-.1,1.176-0.24c0.7-.2,1.288-0.38,1.752-0.56a1.219,1.219,0,0,0,.84-0.79,9.4,9.4,0,0,1,1.128-2.73,2.245,2.245,0,0,1,1.992-.87,2.559,2.559,0,0,1,2.448,1.32,8.012,8.012,0,0,1,.72,3.77,3.777,3.777,0,0,1-.144,1.37,1.076,1.076,0,0,1-.672.41c-0.256.06-.608,0.15-1.056,0.26s-0.88.22-1.3,0.31q-1.44.345-3.072,0.84a13.269,13.269,0,0,0-3,1.35,7.927,7.927,0,0,0-2.28,2.08,5.007,5.007,0,0,0-.912,3.03,4.136,4.136,0,0,0,.72,2.54,5.024,5.024,0,0,0,1.752,1.49,7.266,7.266,0,0,0,2.256.7,16.764,16.764,0,0,0,2.232.16,8.406,8.406,0,0,0,3.768-.79,5.744,5.744,0,0,0,2.568-2.71,4.024,4.024,0,0,0,1.344,2.45,4.75,4.75,0,0,0,3.312,1.05,8.635,8.635,0,0,0,1.9-.21,4.573,4.573,0,0,0,1.56-.65q0-1.2-.72-1.2A3.027,3.027,0,0,0,562.985,8505.14Zm-7.752-5.43a5.948,5.948,0,0,1-1.056,3.75,3.478,3.478,0,0,1-2.88,1.34,2.133,2.133,0,0,1-1.752-.74,4.294,4.294,0,0,1-.6-2.62,5.059,5.059,0,0,1,.408-2.13,4.244,4.244,0,0,1,1.1-1.49,5.426,5.426,0,0,1,1.656-.96,10.833,10.833,0,0,1,2.064-.55l1.056-.2v3.6Zm23.088,6.2a0.579,0.579,0,0,0-.528-0.63,7.439,7.439,0,0,1-2.112-.62,1.147,1.147,0,0,1-.576-1.06v-26.16a14.9,14.9,0,0,1,.144-2.37,8.5,8.5,0,0,0,.144-1.37,0.658,0.658,0,0,0-.768-0.72,8.732,8.732,0,0,0-1.488.24,22.877,22.877,0,0,1-2.3.38c-0.352.03-.736,0.07-1.152,0.1s-0.832.05-1.248,0.07-0.808.03-1.176,0.05-0.648.02-.84,0.02a0.713,0.713,0,0,0-.1.39v0.38a0.722,0.722,0,0,0,.624.77,2.876,2.876,0,0,1,2.208.89,3.734,3.734,0,0,1,.528,2.18v25.15a1.147,1.147,0,0,1-.576,1.06,7.439,7.439,0,0,1-2.112.62,1.025,1.025,0,0,0-.36.17,0.528,0.528,0,0,0-.168.46,4.523,4.523,0,0,0,.024.5,3.306,3.306,0,0,0,.072.41c0.832-.07,1.752-0.12,2.76-0.17s2.024-.07,3.048-0.07c0.928,0,1.928.02,3,.07s2.024,0.1,2.856.17a2.871,2.871,0,0,0,.1-0.91h0Zm17.9-2.88a1.316,1.316,0,0,1-.912,1.32,20.579,20.579,0,0,1-2.5.74,0.623,0.623,0,0,0-.48.77v0.45a1.16,1.16,0,0,0,.1.51c0.48-.03,1-0.06,1.56-0.07s1.128-.04,1.7-0.08,1.128-.05,1.656-0.07,1.016-.02,1.464-0.02c0.928,0,1.864.01,2.808,0.02s1.832,0.06,2.664.12c0.448,0.03.9,0.06,1.344,0.07s0.9,0.03,1.344.03a3.364,3.364,0,0,0,.072-0.53q0.024-.33.024-0.48a0.677,0.677,0,0,0-.576-0.82c-0.576-.09-1.12-0.18-1.632-0.26a6.452,6.452,0,0,1-1.344-.34,2.8,2.8,0,0,1-.912-0.52,1.054,1.054,0,0,1-.336-0.8v-10.75H608.9a1.271,1.271,0,0,1,1.2.79,7.833,7.833,0,0,1,.576,2.33,0.845,0.845,0,0,0,.96.67,3.9,3.9,0,0,0,.432-0.02,1.036,1.036,0,0,0,.432-0.12c-0.1-.99-0.16-1.88-0.192-2.66s-0.048-1.47-.048-2.04c0-.68.024-1.5,0.072-2.48s0.1-1.83.168-2.56a1.782,1.782,0,0,0-.456-0.08c-0.208-.01-0.36-0.02-0.456-0.02a0.812,0.812,0,0,0-.912.62,9.514,9.514,0,0,1-.6,2.38,1.212,1.212,0,0,1-1.176.79h-6.624v-12.14h6.336a9.311,9.311,0,0,1,2.28.24,4.282,4.282,0,0,1,1.632.79,5.619,5.619,0,0,1,1.248,1.44,18.97,18.97,0,0,1,1.128,2.14,0.726,0.726,0,0,0,.72.43,1.867,1.867,0,0,0,.6-0.1,3.4,3.4,0,0,0,.5-0.19c-0.256-.74-0.448-1.36-0.576-1.87s-0.24-1.04-.336-1.59a17.5,17.5,0,0,1-.336-2.13,6.4,6.4,0,0,0-.24-1.42,0.809,0.809,0,0,0-.768-0.43c-0.352,0-1.048.05-2.088,0.14s-2.3.15-3.768,0.15h-9.84c-0.736,0-1.632-.02-2.688-0.05s-2.272-.1-3.648-0.19a1.216,1.216,0,0,0-.1.45v0.46a0.766,0.766,0,0,0,.48.86q1.056,0.2,1.728.36a3.979,3.979,0,0,1,1.056.41,1.2,1.2,0,0,1,.5.55,2.107,2.107,0,0,1,.12.75v24.05Zm21.72-2.38a9.833,9.833,0,0,0,2.256,3.43,10.531,10.531,0,0,0,3.528,2.26,12.52,12.52,0,0,0,4.608.81,12.246,12.246,0,0,0,4.512-.81,11.081,11.081,0,0,0,3.576-2.26,10.07,10.07,0,0,0,2.352-3.43,11.082,11.082,0,0,0,.84-4.34,11.685,11.685,0,0,0-.792-4.35,9.843,9.843,0,0,0-2.28-3.45,10.385,10.385,0,0,0-3.552-2.28,12.317,12.317,0,0,0-4.608-.82,12.047,12.047,0,0,0-4.512.82,10.381,10.381,0,0,0-5.88,5.73,11.1,11.1,0,0,0-.84,4.35A11.67,11.67,0,0,0,617.944,8500.65Zm6.336-11.04a3.764,3.764,0,0,1,3.624-2.09,4.6,4.6,0,0,1,4.176,2.69,14.519,14.519,0,0,1,1.488,7.06,12.428,12.428,0,0,1-1.08,5.73,3.774,3.774,0,0,1-3.624,2.04,4.586,4.586,0,0,1-4.2-2.64,14.54,14.54,0,0,1-1.464-7.05A12.616,12.616,0,0,1,624.28,8489.61Zm21.768,11.11a5.732,5.732,0,0,0,6.288,6.43,6.971,6.971,0,0,0,3.888-1.22,13.962,13.962,0,0,0,3.408-3.24v3.46a0.974,0.974,0,0,0,.12.55,0.671,0.671,0,0,0,.552.17,9,9,0,0,0,1.416-.22q1.032-.21,2.088-0.36a21.777,21.777,0,0,1,2.232-.22c0.88-.04,1.528-0.07,1.944-0.07a0.655,0.655,0,0,0,.1-0.38v-0.48a0.585,0.585,0,0,0-.624-0.63,6.186,6.186,0,0,1-1.3-.26,1.524,1.524,0,0,1-.72-0.46,1.44,1.44,0,0,1-.312-0.69,5.771,5.771,0,0,1-.072-0.99v-15.98a0.616,0.616,0,0,0-.672-0.72,7.911,7.911,0,0,0-1.416.22q-1.032.21-2.088,0.36a9.855,9.855,0,0,1-1.08.14c-0.4.03-.8,0.06-1.2,0.07s-0.768.03-1.1,0.05-0.616.02-.84,0.02q-0.048.24-.072,0.48t-0.024.39a0.48,0.48,0,0,0,.216.48c0.144,0.06.312,0.13,0.5,0.19a5.71,5.71,0,0,1,1.272.26,1.7,1.7,0,0,1,.7.46,1.433,1.433,0,0,1,.312.7,5.727,5.727,0,0,1,.072.98v7.34a5.707,5.707,0,0,1-1.536,4.37,5.212,5.212,0,0,1-3.7,1.44,2.458,2.458,0,0,1-2.232-1.08,7.634,7.634,0,0,1-.7-3.86v-12.29a1.015,1.015,0,0,0-.12-0.53,0.611,0.611,0,0,0-.552-0.19,7.547,7.547,0,0,0-1.392.22q-1.008.21-2.112,0.36a9.855,9.855,0,0,1-1.08.14c-0.4.03-.792,0.06-1.176,0.07s-0.752.03-1.1,0.05-0.624.02-.816,0.02a1.284,1.284,0,0,0-.1.48v0.39a0.7,0.7,0,0,0,.672.67,2.928,2.928,0,0,1,1.992.72,3.038,3.038,0,0,1,.36,1.68v10.51Zm47.568-8.78a6.545,6.545,0,0,0-1.68-4.9,6.326,6.326,0,0,0-4.608-1.63,6.932,6.932,0,0,0-3.888,1.25,14.233,14.233,0,0,0-3.408,3.26,15.506,15.506,0,0,1,.144-2.4,8.819,8.819,0,0,0,.144-1.39,0.659,0.659,0,0,0-.768-0.72,8.7,8.7,0,0,0-1.488.24,22.971,22.971,0,0,1-2.3.38c-0.353.04-.737,0.07-1.152,0.1s-0.833.06-1.248,0.07-0.809.03-1.176,0.05-0.648.02-.84,0.02a0.914,0.914,0,0,0-.1.41v0.36a0.722,0.722,0,0,0,.624.77,2.882,2.882,0,0,1,2.208.91,3.892,3.892,0,0,1,.528,2.21v12.67a1.147,1.147,0,0,1-.576,1.06,7.45,7.45,0,0,1-2.112.62,1.009,1.009,0,0,0-.36.17,0.526,0.526,0,0,0-.168.46,4.291,4.291,0,0,0,.024.5,2.972,2.972,0,0,0,.072.41c0.8-.07,1.623-0.12,2.472-0.17s1.9-.07,3.144-0.07c1.023,0,1.983.02,2.88,0.07s1.759,0.1,2.592.17a2.9,2.9,0,0,0,.1-0.91,0.58,0.58,0,0,0-.528-0.63,4.371,4.371,0,0,1-1.68-.57,1.27,1.27,0,0,1-.432-1.06v-8.59a5.744,5.744,0,0,1,1.536-4.35,5.186,5.186,0,0,1,3.7-1.46,2.46,2.46,0,0,1,2.232,1.08,7.764,7.764,0,0,1,.7,3.91v9.41a1.27,1.27,0,0,1-.432,1.06,4.385,4.385,0,0,1-1.68.57,0.579,0.579,0,0,0-.528.63,2.841,2.841,0,0,0,.1.91c0.831-.07,1.695-0.12,2.592-0.17s1.855-.07,2.88-0.07c1.248,0,2.287.02,3.12,0.07s1.663,0.1,2.5.17a3.724,3.724,0,0,0,.072-0.41,4.783,4.783,0,0,0,.024-0.5,0.531,0.531,0,0,0-.168-0.46,1.041,1.041,0,0,0-.36-0.17,6.161,6.161,0,0,1-2.112-.6,1.143,1.143,0,0,1-.576-1.03v-11.71Zm27.7-13.44a22.413,22.413,0,0,1,.144-2.71,17.479,17.479,0,0,0,.144-2.09,0.682,0.682,0,0,0-.816-0.72,8.345,8.345,0,0,0-1.464.24,21.282,21.282,0,0,1-2.328.38c-0.352.03-.736,0.07-1.152,0.1s-0.832.05-1.248,0.07-0.8.03-1.152,0.05-0.64.02-.864,0.02a4.167,4.167,0,0,0-.1.77,0.628,0.628,0,0,0,.192.53,2.063,2.063,0,0,0,.48.24,3.088,3.088,0,0,1,2.256.89,3.89,3.89,0,0,1,.48,2.18v7.97q-1.488-.48-2.664-0.75a12.111,12.111,0,0,0-2.568-.26,9.186,9.186,0,0,0-3.6.79,11.757,11.757,0,0,0-3.456,2.28,12.1,12.1,0,0,0-2.616,3.63,10.8,10.8,0,0,0-1.032,4.77,13.2,13.2,0,0,0,.672,4.37,9.328,9.328,0,0,0,1.872,3.24,7.866,7.866,0,0,0,2.808,1.99,8.9,8.9,0,0,0,3.48.67,9.239,9.239,0,0,0,2.4-.28,7.66,7.66,0,0,0,1.9-.8,6.761,6.761,0,0,0,1.512-1.22,17.023,17.023,0,0,0,1.3-1.58v2.88a0.974,0.974,0,0,0,.12.55,0.671,0.671,0,0,0,.552.17,9,9,0,0,0,1.416-.22q1.032-.21,2.088-0.36a21.777,21.777,0,0,1,2.232-.22c0.88-.04,1.528-0.07,1.944-0.07a0.655,0.655,0,0,0,.1-0.38v-0.48a0.645,0.645,0,0,0-.672-0.63,6.186,6.186,0,0,1-1.3-.26,1.524,1.524,0,0,1-.72-0.46,1.278,1.278,0,0,1-.288-0.69,8.607,8.607,0,0,1-.048-0.99V8478.5Zm-5.424,19.77a6.3,6.3,0,0,1-.408,2.21,7.725,7.725,0,0,1-1.056,1.97,5.912,5.912,0,0,1-1.488,1.42,3.136,3.136,0,0,1-1.7.55,4.171,4.171,0,0,1-2.376-.67,5.107,5.107,0,0,1-1.608-1.85,10,10,0,0,1-.936-2.79,17.94,17.94,0,0,1-.312-3.43,12.435,12.435,0,0,1,1.2-5.97,3.944,3.944,0,0,1,3.7-2.19,6.9,6.9,0,0,1,4.992,2.21v8.54Zm32.04,6.87a3.9,3.9,0,0,1-.648.05,1.415,1.415,0,0,1-1.344-.87,3.27,3.27,0,0,1-.264-1.14c-0.048-.52-0.072-1.33-0.072-2.45v-8.42a8.486,8.486,0,0,0-.576-3.38,5.258,5.258,0,0,0-1.608-2.11,6.27,6.27,0,0,0-2.472-1.1,15.111,15.111,0,0,0-3.216-.31,9.963,9.963,0,0,0-3.1.53,12.217,12.217,0,0,0-2.952,1.41,9.444,9.444,0,0,0-2.232,2.04,3.843,3.843,0,0,0-.888,2.36,2.426,2.426,0,0,0,.1.84,0.379,0.379,0,0,0,.384.21,7.373,7.373,0,0,0,1.08-.09c0.4-.07.792-0.15,1.176-0.24,0.7-.2,1.287-0.38,1.752-0.56a1.221,1.221,0,0,0,.84-0.79,9.341,9.341,0,0,1,1.128-2.73,2.243,2.243,0,0,1,1.992-.87,2.559,2.559,0,0,1,2.448,1.32,8.012,8.012,0,0,1,.72,3.77,3.777,3.777,0,0,1-.144,1.37,1.079,1.079,0,0,1-.672.41c-0.257.06-.609,0.15-1.056,0.26s-0.881.22-1.3,0.31q-1.44.345-3.072,0.84a13.25,13.25,0,0,0-3,1.35,7.914,7.914,0,0,0-2.28,2.08,5,5,0,0,0-.912,3.03,4.136,4.136,0,0,0,.72,2.54,5.015,5.015,0,0,0,1.752,1.49,7.258,7.258,0,0,0,2.256.7,16.764,16.764,0,0,0,2.232.16,8.409,8.409,0,0,0,3.768-.79,5.753,5.753,0,0,0,2.568-2.71,4.019,4.019,0,0,0,1.344,2.45,4.75,4.75,0,0,0,3.312,1.05,8.641,8.641,0,0,0,1.9-.21,4.581,4.581,0,0,0,1.56-.65q0-1.2-.72-1.2A3.007,3.007,0,0,0,747.927,8505.14Zm-7.752-5.43a5.954,5.954,0,0,1-1.056,3.75,3.481,3.481,0,0,1-2.88,1.34,2.132,2.132,0,0,1-1.752-.74,4.287,4.287,0,0,1-.6-2.62,5.043,5.043,0,0,1,.408-2.13,4.219,4.219,0,0,1,1.1-1.49,5.4,5.4,0,0,1,1.656-.96,10.793,10.793,0,0,1,2.064-.55l1.056-.2v3.6Zm22.272,4.49a3.646,3.646,0,0,1-1.248.27,2.659,2.659,0,0,1-.84-0.12,1.025,1.025,0,0,1-.576-0.56,3.891,3.891,0,0,1-.312-1.27,21.141,21.141,0,0,1-.1-2.28v-11.85h4.608a0.807,0.807,0,0,0,.792-0.44,5.4,5.4,0,0,0,.216-1.96h-5.616v-5h-1.008a1.832,1.832,0,0,0-1.272.68,6.639,6.639,0,0,0-1.176,1.77,5.132,5.132,0,0,1-1.776,2.23,4.185,4.185,0,0,1-2.4.75,0.517,0.517,0,0,0-.576.29,1.557,1.557,0,0,0-.1.48v1.2h2.88v13.2a7.51,7.51,0,0,0,.432,2.76,4.346,4.346,0,0,0,1.152,1.7,3.982,3.982,0,0,0,1.608.86,7.052,7.052,0,0,0,1.848.24,8.973,8.973,0,0,0,3.192-.57,12.3,12.3,0,0,0,3.528-2.4,1.5,1.5,0,0,0-1.008-1.01,1.7,1.7,0,0,0-.816.29A6.567,6.567,0,0,1,762.447,8504.2Zm14.64,2.45c0.927,0.05,1.791.1,2.592,0.17a0.963,0.963,0,0,0,.1-0.43v-0.48a0.58,0.58,0,0,0-.528-0.63,8.116,8.116,0,0,1-2.064-.62,1.128,1.128,0,0,1-.624-1.06v-13.68a15.506,15.506,0,0,1,.144-2.4,8.819,8.819,0,0,0,.144-1.39,0.659,0.659,0,0,0-.768-0.72,8.7,8.7,0,0,0-1.488.24,22.971,22.971,0,0,1-2.3.38c-0.353.04-.737,0.07-1.152,0.1s-0.833.06-1.248,0.07-0.809.03-1.176,0.05-0.648.02-.84,0.02a0.914,0.914,0,0,0-.1.41v0.36a0.681,0.681,0,0,0,.624.77,2.838,2.838,0,0,1,2.256.91,4.2,4.2,0,0,1,.48,2.21v12.67a1.147,1.147,0,0,1-.576,1.06,7.45,7.45,0,0,1-2.112.62,1.009,1.009,0,0,0-.36.17,0.526,0.526,0,0,0-.168.46,4.622,4.622,0,0,0,.1.91c0.831-.07,1.7-0.12,2.592-0.17s1.968-.07,3.216-0.07S776.158,8506.6,777.087,8506.65Zm-5.784-25.73a3.611,3.611,0,0,0,4.968,0,3.787,3.787,0,0,0,0-5.04,3.638,3.638,0,0,0-4.968,0A3.719,3.719,0,0,0,771.3,8480.92Zm12.479,19.73a9.82,9.82,0,0,0,2.256,3.43,10.531,10.531,0,0,0,3.528,2.26,12.512,12.512,0,0,0,4.608.81,12.246,12.246,0,0,0,4.512-.81,11.091,11.091,0,0,0,3.576-2.26,10.07,10.07,0,0,0,2.352-3.43,11.1,11.1,0,0,0,.84-4.34,11.685,11.685,0,0,0-.792-4.35,9.857,9.857,0,0,0-2.28-3.45,10.4,10.4,0,0,0-3.552-2.28,12.317,12.317,0,0,0-4.608-.82,12.043,12.043,0,0,0-4.512.82,10.381,10.381,0,0,0-5.88,5.73,11.1,11.1,0,0,0-.84,4.35A11.67,11.67,0,0,0,783.782,8500.65Zm6.336-11.04a3.763,3.763,0,0,1,3.624-2.09,4.6,4.6,0,0,1,4.176,2.69,14.53,14.53,0,0,1,1.488,7.06,12.428,12.428,0,0,1-1.08,5.73,3.774,3.774,0,0,1-3.624,2.04,4.586,4.586,0,0,1-4.2-2.64,14.529,14.529,0,0,1-1.464-7.05A12.616,12.616,0,0,1,790.118,8489.61Zm41.208,2.33a6.541,6.541,0,0,0-1.68-4.9,6.326,6.326,0,0,0-4.608-1.63,6.932,6.932,0,0,0-3.888,1.25,14.251,14.251,0,0,0-3.408,3.26,15.506,15.506,0,0,1,.144-2.4,8.819,8.819,0,0,0,.144-1.39,0.659,0.659,0,0,0-.768-0.72,8.7,8.7,0,0,0-1.488.24,22.971,22.971,0,0,1-2.3.38c-0.353.04-.737,0.07-1.152,0.1s-0.833.06-1.248,0.07-0.809.03-1.176,0.05-0.648.02-.84,0.02a0.914,0.914,0,0,0-.1.41v0.36a0.722,0.722,0,0,0,.624.77,2.882,2.882,0,0,1,2.208.91,3.892,3.892,0,0,1,.528,2.21v12.67a1.147,1.147,0,0,1-.576,1.06,7.439,7.439,0,0,1-2.112.62,1.009,1.009,0,0,0-.36.17,0.526,0.526,0,0,0-.168.46,4.291,4.291,0,0,0,.024.5,2.972,2.972,0,0,0,.072.41c0.8-.07,1.623-0.12,2.472-0.17s1.9-.07,3.144-0.07c1.023,0,1.983.02,2.88,0.07s1.759,0.1,2.592.17a2.9,2.9,0,0,0,.1-0.91,0.579,0.579,0,0,0-.528-0.63,4.371,4.371,0,0,1-1.68-.57,1.27,1.27,0,0,1-.432-1.06v-8.59a5.744,5.744,0,0,1,1.536-4.35,5.187,5.187,0,0,1,3.7-1.46,2.459,2.459,0,0,1,2.232,1.08,7.764,7.764,0,0,1,.7,3.91v9.41a1.27,1.27,0,0,1-.432,1.06,4.385,4.385,0,0,1-1.68.57,0.579,0.579,0,0,0-.528.63,2.841,2.841,0,0,0,.1.91c0.832-.07,1.7-0.12,2.592-0.17s1.855-.07,2.88-0.07c1.248,0,2.287.02,3.12,0.07s1.663,0.1,2.5.17a3.724,3.724,0,0,0,.072-0.41,4.523,4.523,0,0,0,.024-0.5,0.531,0.531,0,0,0-.168-0.46,1.041,1.041,0,0,0-.36-0.17,6.161,6.161,0,0,1-2.112-.6,1.143,1.143,0,0,1-.576-1.03v-11.71Z" transform="translate(-151.188 -8472.97)"/>
</svg>
