<?xml version="1.0" encoding="utf-8"?>
<!-- Generator: Adobe Illustrator 19.2.0, SVG Export Plug-In . SVG Version: 6.00 Build 0)  -->
<svg version="1.1" id="Layer_1" xmlns="http://www.w3.org/2000/svg" xmlns:xlink="http://www.w3.org/1999/xlink" x="0px" y="0px"
	 viewBox="0 0 695.5 99.9" style="enable-background:new 0 0 695.5 99.9;" xml:space="preserve">
<style type="text/css">
	.st0{fill:#32A1E0;}
	.st1{fill:#FFFFFF;}
	.st2{fill:#003F56;}
	.st3{fill:#FF7700;}
	.st4{fill:#146284;}
	.st5{fill:#FF9800;}
</style>
<g>
	<circle class="st0" cx="49.9" cy="49.9" r="49.9"/>
	<g>
		<path class="st1" d="M25.5,35.5v26.9h0c0.4,5.3,11.4,9.6,24.9,9.6c13.5,0,24.5-4.3,24.9-9.6h0V35.5H25.5z"/>
		<path class="st2" d="M50.5,59.5C40.2,53.9,26,49.7,13.8,42.8c0-0.9,0-1.8,0.1-2.7c12.6-5.7,26.3-9.1,36.6-14
			C60.7,31,74.4,34.6,87,40.2c0.1,0.9,0.1,1.7,0.1,2.6C74.9,49.7,60.7,53.9,50.5,59.5z"/>
		<path class="st1" d="M50.5,56.8C40.2,51.2,26,47,13.8,40.1C26,33.2,40.2,29,50.5,23.4C60.7,29,74.8,33.3,87,40.2
			C74.8,47.1,60.7,51.2,50.5,56.8z"/>
		<path class="st1" d="M32.7,56.1c-0.4,0-0.8-0.4-0.8-0.8v-4.7c0-0.3,0.2-0.6,0.4-0.7l16.1-9.1c0.4-0.2,0.9-0.1,1.1,0.3
			c0.2,0.4,0.1,0.9-0.3,1.1l-15.7,8.9v4.3C33.5,55.8,33.1,56.1,32.7,56.1z"/>
		<path class="st3" d="M34.8,57.5c0-1.2-1-2.1-2.2-2.1c-1.2,0-2.1,1-2.1,2.1v1.1h4.3V57.5z"/>
		<path class="st3" d="M30.5,69.4c0,1.2,1,2.2,2.1,2.2c1.2,0,2.2-1,2.2-2.2v-8.6h-4.3V69.4z"/>
		<rect x="30.5" y="58.6" class="st1" width="4.3" height="2.3"/>
	</g>
	<path class="st4" d="M99.9,49.9c0-0.8,0-1.5-0.1-2.3L87,40.2c0.1,0.9,0.1,1.7,0.1,2.6c-3.8,2.1-7.8,4-11.7,5.8v13.9h0
		C75,67.8,64,72.1,50.5,72.1c-6,0-11.4-0.8-15.7-2.2c-0.2,1-1,1.7-2.1,1.7c-0.1,0-0.2,0-0.3-0.1l39.8,23.1
		C88.6,86.5,99.9,69.5,99.9,49.9z"/>
	<path class="st5" d="M32.4,71.5L31,70.7C31.3,71.2,31.8,71.4,32.4,71.5z"/>
</g>
<g>
	<path class="st0" d="M126.4,44.1c-0.3,0.1-0.5,0.1-0.8,0.1c-0.4,0-0.7-0.1-0.8-0.2c-0.2-0.2-0.3-0.3-0.3-0.5
		c-0.6-1.6-1.5-2.7-2.5-3.4c-1-0.7-2.4-1.1-4.1-1.1c-1.3,0-2.5,0.3-3.4,1c-0.9,0.7-1.4,1.7-1.4,3c0,1,0.4,1.9,1.1,2.5
		c0.7,0.6,1.6,1.2,2.7,1.7c1.1,0.5,2.2,0.9,3.5,1.4c1.2,0.4,2.4,1,3.5,1.7c1.1,0.7,2,1.5,2.7,2.6c0.7,1,1.1,2.4,1.1,4
		c0,1.1-0.2,2.1-0.5,3.1c-0.4,1-0.9,1.9-1.7,2.7c-0.8,0.8-1.8,1.4-3,1.8c-1.2,0.5-2.6,0.7-4.3,0.7c-1.8,0-3.5-0.2-5-0.6
		c-1.5-0.4-2.7-0.8-3.6-1.3c-0.1-1.2-0.2-2.4-0.4-3.5c-0.2-1.2-0.4-2.3-0.6-3.4c0.3-0.1,0.6-0.2,1-0.2c0.3,0,0.6,0.1,0.8,0.2
		s0.3,0.3,0.4,0.7c0.4,1.1,0.8,2,1.2,2.8c0.4,0.8,1,1.4,1.6,1.9c0.6,0.5,1.3,0.8,2,1.1c0.8,0.2,1.7,0.3,2.7,0.3
		c0.9,0,1.6-0.1,2.2-0.4c0.6-0.2,1.1-0.6,1.5-0.9c0.4-0.4,0.7-0.9,0.9-1.4c0.2-0.5,0.3-1.1,0.3-1.6c0-1.2-0.3-2.2-1-2.8
		c-0.7-0.7-1.5-1.3-2.6-1.7c-1-0.5-2.1-0.9-3.3-1.3c-1.2-0.4-2.3-0.9-3.3-1.6c-1-0.6-1.9-1.4-2.6-2.4c-0.7-1-1-2.3-1-4
		c0-1.1,0.2-2.2,0.6-3.1c0.4-1,1-1.8,1.8-2.5c0.8-0.7,1.7-1.3,2.8-1.7c1.1-0.4,2.4-0.6,3.8-0.6c1.2,0,2.4,0.1,3.5,0.4
		c1.2,0.3,2.5,0.7,4.1,1.3c0.1,0.8,0.1,1.8,0.3,2.8C126.1,42.3,126.2,43.2,126.4,44.1z"/>
	<path class="st0" d="M141,61.8c0.3-0.2,0.5-0.3,0.7-0.3c0.3,0,0.6,0.3,0.9,0.9c-1.2,1.1-2.2,1.8-3.1,2.1c-0.9,0.3-1.8,0.5-2.8,0.5
		c-0.6,0-1.1-0.1-1.6-0.2c-0.5-0.1-1-0.4-1.4-0.8c-0.4-0.4-0.8-0.9-1-1.5c-0.3-0.6-0.4-1.4-0.4-2.4V48.6h-2.5v-1
		c0-0.1,0-0.3,0.1-0.4c0.1-0.2,0.2-0.3,0.5-0.3c0.8,0,1.5-0.2,2.1-0.7c0.6-0.4,1.2-1.1,1.6-2c0.3-0.6,0.7-1.2,1-1.6
		c0.4-0.4,0.7-0.6,1.1-0.6h0.9v4.4h4.9c0,0.9-0.1,1.5-0.2,1.7s-0.4,0.4-0.7,0.4h-4V59c0,0.8,0,1.5,0.1,2c0.1,0.5,0.1,0.9,0.3,1.1
		s0.3,0.4,0.5,0.5c0.2,0.1,0.5,0.1,0.7,0.1c0.3,0,0.7-0.1,1.1-0.2C140.2,62.3,140.6,62.1,141,61.8z"/>
	<path class="st0" d="M144.7,61.9c0-0.9,0.3-1.7,0.9-2.3c0.6-0.6,1.3-0.9,2.2-0.9c0.8,0,1.6,0.3,2.2,0.9c0.6,0.6,0.9,1.4,0.9,2.3
		c0,0.9-0.3,1.6-0.9,2.2c-0.6,0.6-1.3,0.9-2.2,0.9c-0.9,0-1.6-0.3-2.2-0.9C145,63.5,144.7,62.8,144.7,61.9z"/>
	<path class="st0" d="M166.2,40.4c0-0.3,0-0.5-0.1-0.7c-0.1-0.2-0.2-0.3-0.3-0.5c-0.2-0.1-0.4-0.3-0.8-0.4c-0.4-0.1-0.8-0.2-1.4-0.3
		c-0.3-0.1-0.4-0.3-0.4-0.7c0-0.1,0-0.2,0-0.4s0-0.3,0.1-0.5c0.9,0.1,1.9,0.1,2.9,0.1s1.9,0.1,2.8,0.1c0.8,0,1.7,0,2.7-0.1
		s2-0.1,2.9-0.1c0,0.1,0,0.3,0.1,0.5c0,0.2,0,0.3,0,0.4c0,0.4-0.1,0.6-0.4,0.7c-0.6,0.1-1.1,0.2-1.4,0.3c-0.4,0.1-0.6,0.2-0.8,0.4
		c-0.2,0.1-0.3,0.3-0.3,0.5s-0.1,0.4-0.1,0.7v18.2c0,2-0.1,3.6-0.4,5c-0.3,1.4-0.7,2.6-1.4,3.8c-0.6,1.1-1.5,2.2-2.7,3.2
		c-1.1,1-2.6,2.1-4.3,3.3c-0.2-0.2-0.4-0.4-0.6-0.5c-0.2-0.2-0.2-0.3-0.2-0.5c0-0.2,0.1-0.4,0.2-0.5c0.8-0.8,1.4-1.5,1.9-2.2
		c0.5-0.7,0.9-1.4,1.2-2.2c0.3-0.7,0.5-1.5,0.7-2.4c0.1-0.8,0.2-1.7,0.2-2.7V40.4z"/>
	<path class="st0" d="M176,55.6c0-1.4,0.2-2.6,0.7-3.8c0.5-1.2,1.2-2.2,2-3c0.9-0.9,1.9-1.5,3.1-2c1.2-0.5,2.5-0.7,3.9-0.7
		c1.5,0,2.8,0.2,4,0.7c1.2,0.5,2.2,1.1,3.1,2c0.9,0.9,1.5,1.9,2,3c0.5,1.2,0.7,2.4,0.7,3.8c0,1.4-0.2,2.6-0.7,3.8
		c-0.5,1.2-1.2,2.2-2.1,3s-1.9,1.5-3.1,2c-1.2,0.5-2.5,0.7-3.9,0.7c-1.5,0-2.8-0.2-4-0.7c-1.2-0.5-2.2-1.1-3.1-2s-1.5-1.8-2-3
		C176.2,58.2,176,56.9,176,55.6z M181.3,54.7c0,2.6,0.4,4.6,1.3,6.2c0.9,1.5,2.1,2.3,3.7,2.3c1.5,0,2.5-0.6,3.2-1.8
		c0.6-1.2,0.9-2.9,0.9-5c0-2.5-0.4-4.6-1.3-6.2c-0.9-1.6-2.1-2.4-3.7-2.4c-1.5,0-2.5,0.6-3.2,1.8C181.6,50.9,181.3,52.6,181.3,54.7z
		"/>
	<path class="st0" d="M208.2,64.8c-0.7-0.1-1.5-0.1-2.3-0.1c-0.8,0-1.6-0.1-2.5-0.1c-1.1,0-2,0-2.8,0.1s-1.5,0.1-2.2,0.1
		c-0.1-0.3-0.1-0.5-0.1-0.8c0-0.2,0-0.3,0.1-0.4c0.1-0.1,0.2-0.1,0.3-0.1c0.9-0.1,1.5-0.3,1.8-0.5s0.5-0.5,0.5-0.9v-22
		c0-0.8-0.1-1.5-0.4-1.9c-0.3-0.4-0.9-0.7-2-0.8c-0.4-0.1-0.5-0.3-0.5-0.7c0-0.1,0-0.2,0-0.3s0-0.2,0.1-0.4c0.2,0,0.4,0,0.7,0
		c0.3,0,0.7,0,1,0c0.4,0,0.7,0,1.1-0.1c0.4,0,0.7-0.1,1-0.1c0.7-0.1,1.4-0.2,2-0.3c0.6-0.1,1.1-0.2,1.3-0.2c0.4,0,0.7,0.2,0.7,0.6
		c0,0.3,0,0.7-0.1,1.2c-0.1,0.5-0.1,1.2-0.1,2.1v10.9c0.9-1.2,1.9-2.1,3-2.8c1.1-0.7,2.2-1.1,3.4-1.1c1.7,0,3.1,0.5,4,1.4
		c1,1,1.5,2.4,1.5,4.3V62c0,0.4,0.2,0.7,0.5,0.9c0.3,0.2,0.9,0.4,1.9,0.5c0.1,0,0.2,0.1,0.3,0.1c0.1,0.1,0.1,0.2,0.1,0.4
		c0,0.3,0,0.5-0.1,0.8c-0.7-0.1-1.5-0.1-2.2-0.1c-0.7,0-1.6-0.1-2.7-0.1c-0.9,0-1.7,0-2.5,0.1c-0.8,0-1.5,0.1-2.3,0.1
		c-0.1-0.1-0.1-0.2-0.1-0.4c0-0.1,0-0.3,0-0.4c0-0.3,0.2-0.5,0.5-0.5c0.8-0.1,1.3-0.3,1.5-0.5c0.2-0.2,0.4-0.5,0.4-0.9v-8.2
		c0-1.7-0.2-2.8-0.6-3.4c-0.4-0.6-1.1-0.9-2-0.9c-1.3,0-2.3,0.4-3.2,1.3c-0.9,0.9-1.3,2.1-1.3,3.8V62c0,0.4,0.1,0.7,0.3,0.9
		c0.2,0.2,0.7,0.4,1.5,0.5c0.3,0.1,0.5,0.2,0.5,0.5c0,0.1,0,0.3,0,0.4C208.3,64.5,208.2,64.7,208.2,64.8z"/>
	<path class="st0" d="M242.3,62c0,0.4,0.2,0.7,0.5,0.9s1,0.4,1.8,0.5c0.1,0,0.2,0.1,0.3,0.1c0.1,0.1,0.1,0.2,0.1,0.4
		c0,0.2,0,0.3,0,0.4c0,0.1,0,0.2-0.1,0.4c-0.7-0.1-1.5-0.1-2.2-0.1c-0.7,0-1.6-0.1-2.7-0.1c-0.9,0-1.7,0-2.5,0.1
		c-0.8,0-1.5,0.1-2.3,0.1c-0.1-0.1-0.1-0.4-0.1-0.8c0-0.3,0.2-0.5,0.5-0.5c0.7-0.1,1.2-0.3,1.5-0.5c0.3-0.2,0.4-0.5,0.4-0.9v-8.2
		c0-1.7-0.2-2.8-0.6-3.4c-0.4-0.6-1.1-0.9-2-0.9c-1.3,0-2.3,0.4-3.2,1.3c-0.9,0.9-1.3,2.1-1.3,3.8V62c0,0.4,0.1,0.7,0.4,0.9
		c0.3,0.2,0.7,0.4,1.5,0.5c0.3,0.1,0.5,0.2,0.5,0.5c0,0.4,0,0.7-0.1,0.8c-0.7-0.1-1.5-0.1-2.3-0.1c-0.8,0-1.6-0.1-2.5-0.1
		c-1.1,0-2,0-2.8,0.1s-1.5,0.1-2.2,0.1c0-0.1,0-0.2-0.1-0.4c0-0.1,0-0.3,0-0.4c0-0.2,0-0.3,0.1-0.4c0.1-0.1,0.2-0.1,0.3-0.1
		c0.9-0.2,1.5-0.4,1.8-0.5c0.3-0.2,0.5-0.5,0.5-0.9V50.9c0-0.8-0.2-1.5-0.5-1.9c-0.3-0.4-1-0.7-1.9-0.8c-0.4-0.1-0.5-0.3-0.5-0.7
		c0-0.1,0-0.2,0-0.3s0-0.2,0.1-0.4c0.2,0,0.4,0,0.7,0c0.3,0,0.7,0,1,0c0.4,0,0.7,0,1.1-0.1c0.4,0,0.7-0.1,1-0.1
		c0.7-0.1,1.4-0.2,2-0.3c0.6-0.1,1.1-0.2,1.3-0.2c0.4,0,0.7,0.2,0.7,0.6c0,0.3,0,0.7-0.1,1.2c-0.1,0.5-0.1,1.2-0.1,2.1
		c0.9-1.2,1.9-2.1,3-2.9c1.1-0.7,2.2-1.1,3.4-1.1c1.7,0,3.1,0.5,4,1.4c1,1,1.5,2.4,1.5,4.3V62z"/>
	<path class="st0" d="M265.2,39.4v10.1h5.9c0.5,0,0.9-0.2,1.1-0.7c0.2-0.4,0.4-1.1,0.5-2.1c0-0.2,0.1-0.4,0.3-0.4
		c0.1-0.1,0.3-0.1,0.5-0.1c0.1,0,0.2,0,0.4,0c0.2,0,0.3,0,0.4,0.1c-0.1,0.6-0.1,1.4-0.1,2.2c0,0.9-0.1,1.6-0.1,2.2
		c0,0.5,0,1.1,0,1.8c0,0.7,0.1,1.5,0.2,2.3c-0.1,0.1-0.2,0.1-0.4,0.1c-0.2,0-0.3,0-0.4,0c-0.5,0-0.8-0.2-0.8-0.6
		c-0.2-1.1-0.4-1.8-0.6-2.2s-0.6-0.6-1-0.6h-5.9V61c0,0.6,0.4,1,1.1,1.2c0.7,0.2,2,0.3,3.7,0.3h1.8c0.8,0,1.5-0.1,2.1-0.3
		c0.6-0.2,1.1-0.5,1.5-0.9c0.4-0.4,0.8-0.9,1.2-1.4s0.7-1.2,1-1.8c0.1-0.2,0.3-0.3,0.6-0.3c0.1,0,0.3,0,0.5,0.1
		c0.2,0.1,0.4,0.2,0.6,0.3c-0.1,0.2-0.1,0.4-0.2,0.6c-0.1,0.2-0.1,0.4-0.2,0.6c-0.1,0.3-0.3,0.6-0.3,1c-0.1,0.4-0.2,0.7-0.3,0.9
		c-0.1,0.3-0.1,0.6-0.2,0.9c-0.1,0.4-0.1,0.7-0.2,1c-0.1,0.3-0.1,0.6-0.2,0.9c-0.1,0.3-0.1,0.4-0.1,0.5c-0.1,0.2-0.3,0.3-0.7,0.3
		c-0.2,0-0.5,0-1,0c-0.4,0-0.9,0-1.4-0.1c-0.5,0-1,0-1.5-0.1c-0.5,0-0.9,0-1.3,0h-9.5c-0.8,0-1.7,0-2.8,0.1c-1,0-2,0.1-2.8,0.1
		c-0.1-0.1-0.1-0.3-0.1-0.4c0-0.2,0-0.3,0-0.4c0-0.4,0.1-0.6,0.4-0.7c1.1-0.2,1.8-0.4,2.3-0.6c0.5-0.2,0.7-0.6,0.7-1.2v-21
		c0-0.3,0-0.5-0.1-0.7s-0.2-0.3-0.5-0.5s-0.5-0.2-0.9-0.3c-0.4-0.1-0.9-0.2-1.4-0.3c-0.3-0.1-0.4-0.3-0.4-0.8c0-0.1,0-0.3,0-0.4
		s0-0.3,0.1-0.4c1.2,0.1,2.3,0.1,3.2,0.2s1.7,0,2.4,0h8.6c1.3,0,2.3,0,3.3-0.1s1.5-0.1,1.9-0.1c0.3,0,0.5,0.1,0.7,0.4
		c0.1,0.2,0.2,0.6,0.2,1.2c0.1,0.6,0.2,1.2,0.3,1.9c0.1,0.5,0.2,0.9,0.3,1.4c0.1,0.4,0.3,1,0.5,1.6c-0.1,0.1-0.3,0.1-0.5,0.2
		c-0.2,0.1-0.3,0.1-0.5,0.1c-0.3,0-0.5-0.1-0.7-0.4c-0.3-0.7-0.7-1.4-1-1.9c-0.3-0.5-0.7-0.9-1.1-1.3c-0.4-0.3-0.9-0.6-1.4-0.7
		c-0.5-0.1-1.2-0.2-2-0.2H265.2z"/>
	<path class="st0" d="M300.5,60.7c0,0.3,0,0.6,0,0.9c0,0.2,0.1,0.4,0.3,0.6c0.1,0.2,0.3,0.3,0.6,0.4c0.3,0.1,0.7,0.2,1.1,0.2
		c0.4,0.1,0.6,0.2,0.6,0.5c0,0.1,0,0.3,0,0.4s0,0.3-0.1,0.3c-0.4,0-0.9,0-1.7,0.1c-0.8,0-1.4,0.1-2,0.2c-0.6,0.1-1.2,0.2-1.8,0.3
		c-0.6,0.1-1,0.2-1.2,0.2c-0.3,0-0.4,0-0.5-0.1c-0.1-0.1-0.1-0.3-0.1-0.5v-2.5c-0.4,0.5-0.7,1-1.1,1.4c-0.4,0.4-0.8,0.8-1.3,1.1
		c-0.5,0.3-1,0.5-1.7,0.7c-0.6,0.2-1.3,0.3-2.1,0.3c-1.1,0-2.1-0.2-3-0.6c-0.9-0.4-1.8-1-2.5-1.7c-0.7-0.8-1.2-1.7-1.6-2.8
		c-0.4-1.1-0.6-2.4-0.6-3.8c0-1.5,0.3-2.9,0.9-4.2c0.6-1.2,1.4-2.3,2.3-3.2c0.9-0.9,1.9-1.5,3-2c1.1-0.5,2.1-0.7,3.2-0.7
		c0.8,0,1.6,0.1,2.2,0.2c0.7,0.2,1.5,0.4,2.3,0.7v-7c0-0.9-0.1-1.5-0.4-1.9c-0.3-0.4-0.9-0.7-2-0.8c-0.2-0.1-0.3-0.1-0.4-0.2
		c-0.1-0.1-0.2-0.2-0.2-0.5c0-0.2,0-0.4,0.1-0.7c0.2,0,0.4,0,0.8,0c0.3,0,0.6,0,1,0c0.4,0,0.7,0,1.1-0.1c0.4,0,0.7-0.1,1-0.1
		c0.7-0.1,1.4-0.2,2-0.3c0.6-0.1,1.1-0.2,1.3-0.2c0.5,0,0.7,0.2,0.7,0.6c0,0.5,0,1.1-0.1,1.8c-0.1,0.7-0.1,1.5-0.1,2.4V60.7z
		 M295.7,49.8c-1.3-1.3-2.7-1.9-4.4-1.9c-1.5,0-2.5,0.6-3.2,1.9c-0.7,1.3-1,3-1,5.2c0,1.1,0.1,2.1,0.3,3c0.2,0.9,0.5,1.8,0.8,2.4
		c0.4,0.7,0.8,1.2,1.4,1.6c0.6,0.4,1.3,0.6,2.1,0.6c0.5,0,1-0.2,1.5-0.5c0.5-0.3,0.9-0.7,1.3-1.2c0.4-0.5,0.7-1.1,0.9-1.7
		c0.2-0.6,0.4-1.3,0.4-1.9V49.8z"/>
	<path class="st0" d="M307.9,50.2c0-0.7-0.1-1.2-0.3-1.5c-0.2-0.3-0.8-0.5-1.7-0.6c-0.4-0.1-0.6-0.3-0.6-0.6c0-0.1,0-0.2,0-0.3
		c0-0.1,0-0.3,0.1-0.4c0.2,0,0.4,0,0.7,0c0.3,0,0.6,0,1,0c0.3,0,0.7,0,1-0.1c0.3,0,0.7-0.1,0.9-0.1c0.6-0.1,1.3-0.2,1.8-0.3
		s1-0.2,1.2-0.2c0.3,0,0.4,0.1,0.5,0.2c0.1,0.1,0.1,0.3,0.1,0.5v10.8c0,1.6,0.2,2.8,0.6,3.4c0.4,0.6,1.1,0.9,2,0.9
		c1.3,0,2.3-0.4,3.2-1.3c0.9-0.8,1.3-2.1,1.3-3.8v-6.4c0-0.3,0-0.6-0.1-0.9c0-0.2-0.1-0.4-0.3-0.6c-0.1-0.2-0.3-0.3-0.6-0.4
		c-0.3-0.1-0.6-0.2-1.1-0.2c-0.2-0.1-0.3-0.1-0.4-0.2s-0.2-0.2-0.2-0.4c0-0.1,0-0.2,0-0.3c0-0.1,0-0.3,0.1-0.4c0.2,0,0.4,0,0.7,0
		c0.3,0,0.6,0,1,0c0.3,0,0.7,0,1.1-0.1c0.3,0,0.7-0.1,0.9-0.1c0.6-0.1,1.2-0.2,1.8-0.3c0.6-0.1,1-0.2,1.2-0.2c0.4,0,0.6,0.2,0.6,0.6
		v14c0,0.3,0,0.6,0.1,0.9c0,0.2,0.1,0.4,0.3,0.6c0.1,0.2,0.3,0.3,0.6,0.4c0.3,0.1,0.7,0.2,1.1,0.2c0.4,0,0.5,0.2,0.5,0.5
		c0,0.1,0,0.3,0,0.4s0,0.3-0.1,0.3c-0.4,0-0.9,0-1.7,0.1c-0.8,0-1.4,0.1-2,0.2c-0.6,0.1-1.2,0.2-1.8,0.3c-0.6,0.1-1,0.2-1.2,0.2
		c-0.3,0-0.4,0-0.5-0.1c-0.1-0.1-0.1-0.3-0.1-0.5v-3c-0.9,1.2-1.9,2.1-3,2.8c-1.1,0.7-2.2,1.1-3.4,1.1c-1.7,0-3.1-0.5-4-1.4
		c-1-0.9-1.5-2.3-1.5-4.2V50.2z"/>
	<path class="st0" d="M338.6,47.9c-1.2,0-2.1,0.6-2.6,1.7c-0.6,1.2-0.9,2.7-0.9,4.7c0,2.8,0.5,4.8,1.5,6.1c1,1.3,2.5,1.9,4.3,1.9
		c0.7,0,1.3-0.1,2-0.2c0.7-0.2,1.4-0.5,2.2-1c0.3-0.2,0.5-0.3,0.8-0.3s0.4,0.1,0.5,0.3c0.1,0.2,0.3,0.5,0.5,0.9
		c-0.9,0.8-2,1.6-3.3,2.1c-1.3,0.6-2.8,0.9-4.7,0.9c-1.2,0-2.4-0.2-3.5-0.5c-1.1-0.4-2.1-0.9-2.9-1.7c-0.8-0.8-1.5-1.7-2-2.8
		c-0.5-1.1-0.7-2.5-0.7-4c0-1.5,0.3-2.8,0.9-4.1c0.6-1.2,1.3-2.3,2.2-3.1c0.9-0.9,1.9-1.6,3-2c1.1-0.5,2.2-0.7,3.3-0.7
		c1.3,0,2.5,0.2,3.4,0.5c1,0.3,1.7,0.7,2.3,1.2c0.6,0.5,1,1,1.3,1.5c0.3,0.5,0.4,1,0.4,1.4c0,0.2-0.2,0.4-0.6,0.5
		c-0.4,0.1-0.9,0.2-1.4,0.3c-0.5,0.1-1,0.1-1.4,0.1c-0.5,0-0.8,0-0.9,0c-0.3,0-0.5-0.1-0.6-0.2c-0.2-0.2-0.3-0.3-0.3-0.5
		c-0.1-0.4-0.3-0.7-0.4-1.1c-0.1-0.3-0.3-0.7-0.5-0.9c-0.2-0.3-0.4-0.5-0.7-0.7C339.5,48,339.1,47.9,338.6,47.9z"/>
	<path class="st0" d="M367.4,63.3c0.4,0,0.6,0.4,0.6,1c-0.4,0.3-0.8,0.4-1.4,0.6s-1.1,0.2-1.7,0.2c-1.3,0-2.2-0.3-2.9-0.9
		c-0.7-0.6-1.1-1.3-1.2-2.1c-0.6,1.1-1.3,1.9-2.2,2.4c-0.9,0.5-2,0.7-3.3,0.7c-0.6,0-1.2,0-2-0.1c-0.7-0.1-1.4-0.3-2-0.6
		c-0.6-0.3-1.1-0.7-1.5-1.3c-0.4-0.6-0.6-1.3-0.6-2.2c0-1,0.3-1.9,0.8-2.6s1.2-1.3,2-1.8c0.8-0.5,1.7-0.9,2.6-1.2
		c1-0.3,1.8-0.5,2.7-0.7c0.4-0.1,0.7-0.2,1.1-0.3c0.4-0.1,0.7-0.2,0.9-0.2c0.3-0.1,0.5-0.2,0.6-0.4c0.1-0.2,0.1-0.6,0.1-1.2
		c0-1.4-0.2-2.5-0.6-3.3c-0.4-0.8-1.1-1.2-2.1-1.2c-0.8,0-1.4,0.3-1.7,0.8c-0.4,0.5-0.7,1.3-1,2.4c-0.1,0.3-0.3,0.5-0.7,0.7
		c-0.4,0.2-0.9,0.3-1.5,0.5c-0.3,0.1-0.7,0.2-1,0.2c-0.4,0.1-0.7,0.1-0.9,0.1c-0.2,0-0.3-0.1-0.3-0.2c-0.1-0.1-0.1-0.4-0.1-0.7
		c0-0.7,0.3-1.4,0.8-2.1c0.5-0.7,1.2-1.3,2-1.8c0.8-0.5,1.6-0.9,2.6-1.2c0.9-0.3,1.8-0.5,2.7-0.5c1,0,2,0.1,2.8,0.3
		c0.8,0.2,1.6,0.5,2.2,1c0.6,0.5,1.1,1.1,1.4,1.8c0.3,0.8,0.5,1.8,0.5,3v7.4c0,1,0,1.7,0.1,2.1c0,0.4,0.1,0.8,0.2,1
		c0.3,0.5,0.6,0.8,1.2,0.8c0.2,0,0.4,0,0.6,0C367.1,63.3,367.2,63.3,367.4,63.3z M360.1,55.4l-0.9,0.2c-0.6,0.1-1.2,0.3-1.8,0.5
		c-0.6,0.2-1,0.5-1.4,0.8c-0.4,0.4-0.7,0.8-1,1.3c-0.2,0.5-0.4,1.1-0.4,1.9c0,1.1,0.2,1.9,0.5,2.3c0.3,0.4,0.9,0.7,1.5,0.7
		c1.1,0,1.9-0.4,2.5-1.2c0.6-0.8,0.9-1.9,0.9-3.3V55.4z"/>
	<path class="st0" d="M380.5,61.8c0.3-0.2,0.5-0.3,0.7-0.3c0.3,0,0.6,0.3,0.9,0.9c-1.2,1.1-2.2,1.8-3.1,2.1
		c-0.9,0.3-1.8,0.5-2.8,0.5c-0.6,0-1.1-0.1-1.6-0.2c-0.5-0.1-1-0.4-1.4-0.8c-0.4-0.4-0.8-0.9-1-1.5s-0.4-1.4-0.4-2.4V48.6h-2.5v-1
		c0-0.1,0-0.3,0.1-0.4c0.1-0.2,0.2-0.3,0.5-0.3c0.8,0,1.5-0.2,2.1-0.7c0.6-0.4,1.2-1.1,1.6-2c0.3-0.6,0.7-1.2,1-1.6s0.7-0.6,1.1-0.6
		h0.9v4.4h4.9c0,0.9-0.1,1.5-0.2,1.7s-0.4,0.4-0.7,0.4h-4V59c0,0.8,0,1.5,0.1,2c0.1,0.5,0.1,0.9,0.3,1.1s0.3,0.4,0.5,0.5
		c0.2,0.1,0.5,0.1,0.7,0.1c0.3,0,0.7-0.1,1.1-0.2C379.6,62.3,380.1,62.1,380.5,61.8z"/>
	<path class="st0" d="M388.7,64.6c-1.1,0-2,0-2.8,0.1c-0.8,0-1.5,0.1-2.3,0.1c-0.1-0.3-0.1-0.5-0.1-0.8c0-0.2,0-0.3,0.1-0.4
		c0.1-0.1,0.2-0.1,0.3-0.1c0.9-0.2,1.5-0.4,1.8-0.5c0.3-0.2,0.5-0.5,0.5-0.9V50.9c0-0.8-0.1-1.5-0.4-1.9c-0.3-0.4-0.9-0.7-2-0.8
		c-0.4-0.1-0.5-0.3-0.5-0.7c0-0.1,0-0.2,0-0.3s0-0.2,0.1-0.4c0.2,0,0.4,0,0.7,0c0.3,0,0.7,0,1,0c0.4,0,0.7,0,1.1-0.1
		c0.4,0,0.7-0.1,1-0.1c0.7-0.1,1.4-0.2,2-0.3c0.6-0.1,1.1-0.2,1.3-0.2c0.4,0,0.7,0.2,0.7,0.6c0,0.3,0,0.7-0.1,1.2
		c-0.1,0.5-0.1,1.2-0.1,2.1v12c0,0.4,0.2,0.7,0.5,0.9c0.4,0.2,1,0.4,1.8,0.5c0.3,0.1,0.5,0.2,0.5,0.5c0,0.1,0,0.3,0,0.4
		c0,0.1,0,0.3-0.1,0.4c-0.7-0.1-1.5-0.1-2.3-0.1C390.8,64.6,389.8,64.6,388.7,64.6z M385.7,39.9c0-0.9,0.3-1.6,0.9-2.2
		c0.6-0.6,1.3-0.9,2.2-0.9c0.9,0,1.6,0.3,2.2,0.9c0.6,0.6,0.8,1.3,0.8,2.2c0,0.9-0.3,1.6-0.8,2.2c-0.6,0.6-1.3,0.9-2.2,0.9
		c-0.9,0-1.6-0.3-2.2-0.9C386,41.5,385.7,40.8,385.7,39.9z"/>
	<path class="st0" d="M396.3,55.6c0-1.4,0.2-2.6,0.7-3.8c0.5-1.2,1.2-2.2,2-3c0.9-0.9,1.9-1.5,3.1-2c1.2-0.5,2.5-0.7,3.9-0.7
		c1.5,0,2.8,0.2,4,0.7c1.2,0.5,2.2,1.1,3.1,2c0.9,0.9,1.5,1.9,2,3c0.5,1.2,0.7,2.4,0.7,3.8c0,1.4-0.2,2.6-0.7,3.8
		c-0.5,1.2-1.2,2.2-2.1,3s-1.9,1.5-3.1,2c-1.2,0.5-2.5,0.7-3.9,0.7c-1.5,0-2.8-0.2-4-0.7c-1.2-0.5-2.2-1.1-3.1-2s-1.5-1.8-2-3
		C396.6,58.2,396.3,56.9,396.3,55.6z M401.6,54.7c0,2.6,0.4,4.6,1.3,6.2c0.9,1.5,2.1,2.3,3.7,2.3c1.5,0,2.5-0.6,3.2-1.8
		c0.6-1.2,0.9-2.9,0.9-5c0-2.5-0.4-4.6-1.3-6.2c-0.9-1.6-2.1-2.4-3.7-2.4c-1.5,0-2.5,0.6-3.2,1.8C402,50.9,401.6,52.6,401.6,54.7z"
		/>
	<path class="st0" d="M438.2,62c0,0.4,0.2,0.7,0.5,0.9s1,0.4,1.8,0.5c0.1,0,0.2,0.1,0.3,0.1c0.1,0.1,0.1,0.2,0.1,0.4
		c0,0.2,0,0.3,0,0.4c0,0.1,0,0.2-0.1,0.4c-0.7-0.1-1.5-0.1-2.2-0.1c-0.7,0-1.6-0.1-2.7-0.1c-0.9,0-1.7,0-2.5,0.1
		c-0.8,0-1.5,0.1-2.3,0.1c-0.1-0.1-0.1-0.4-0.1-0.8c0-0.3,0.2-0.5,0.5-0.5c0.7-0.1,1.2-0.3,1.5-0.5c0.3-0.2,0.4-0.5,0.4-0.9v-8.2
		c0-1.7-0.2-2.8-0.6-3.4c-0.4-0.6-1.1-0.9-2-0.9c-1.3,0-2.3,0.4-3.2,1.3c-0.9,0.9-1.3,2.1-1.3,3.8V62c0,0.4,0.1,0.7,0.4,0.9
		c0.3,0.2,0.7,0.4,1.5,0.5c0.3,0.1,0.5,0.2,0.5,0.5c0,0.4,0,0.7-0.1,0.8c-0.7-0.1-1.5-0.1-2.3-0.1c-0.8,0-1.6-0.1-2.5-0.1
		c-1.1,0-2,0-2.8,0.1s-1.5,0.1-2.2,0.1c0-0.1,0-0.2-0.1-0.4c0-0.1,0-0.3,0-0.4c0-0.2,0-0.3,0.1-0.4c0.1-0.1,0.2-0.1,0.3-0.1
		c0.9-0.2,1.5-0.4,1.8-0.5c0.3-0.2,0.5-0.5,0.5-0.9V50.9c0-0.8-0.2-1.5-0.5-1.9c-0.3-0.4-1-0.7-1.9-0.8c-0.4-0.1-0.5-0.3-0.5-0.7
		c0-0.1,0-0.2,0-0.3s0-0.2,0.1-0.4c0.2,0,0.4,0,0.7,0c0.3,0,0.7,0,1,0c0.4,0,0.7,0,1.1-0.1c0.4,0,0.7-0.1,1-0.1
		c0.7-0.1,1.4-0.2,2-0.3c0.6-0.1,1.1-0.2,1.3-0.2c0.4,0,0.7,0.2,0.7,0.6c0,0.3,0,0.7-0.1,1.2c-0.1,0.5-0.1,1.2-0.1,2.1
		c0.9-1.2,1.9-2.1,3-2.9c1.1-0.7,2.2-1.1,3.4-1.1c1.7,0,3.1,0.5,4,1.4c1,1,1.5,2.4,1.5,4.3V62z"/>
	<path class="st0" d="M461.5,63.3c0.4,0,0.6,0.4,0.6,1c-0.4,0.3-0.8,0.4-1.4,0.6s-1.1,0.2-1.7,0.2c-1.3,0-2.2-0.3-2.9-0.9
		c-0.7-0.6-1.1-1.3-1.2-2.1c-0.6,1.1-1.3,1.9-2.2,2.4c-0.9,0.5-2,0.7-3.3,0.7c-0.6,0-1.2,0-2-0.1c-0.7-0.1-1.4-0.3-2-0.6
		c-0.6-0.3-1.1-0.7-1.5-1.3c-0.4-0.6-0.6-1.3-0.6-2.2c0-1,0.3-1.9,0.8-2.6s1.2-1.3,2-1.8c0.8-0.5,1.7-0.9,2.6-1.2
		c1-0.3,1.8-0.5,2.7-0.7c0.4-0.1,0.7-0.2,1.1-0.3c0.4-0.1,0.7-0.2,0.9-0.2c0.3-0.1,0.5-0.2,0.6-0.4c0.1-0.2,0.1-0.6,0.1-1.2
		c0-1.4-0.2-2.5-0.6-3.3c-0.4-0.8-1.1-1.2-2.1-1.2c-0.8,0-1.4,0.3-1.7,0.8c-0.4,0.5-0.7,1.3-1,2.4c-0.1,0.3-0.3,0.5-0.7,0.7
		c-0.4,0.2-0.9,0.3-1.5,0.5c-0.3,0.1-0.7,0.2-1,0.2c-0.4,0.1-0.7,0.1-0.9,0.1c-0.2,0-0.3-0.1-0.3-0.2c-0.1-0.1-0.1-0.4-0.1-0.7
		c0-0.7,0.3-1.4,0.8-2.1c0.5-0.7,1.2-1.3,2-1.8c0.8-0.5,1.6-0.9,2.6-1.2c0.9-0.3,1.8-0.5,2.7-0.5c1,0,2,0.1,2.8,0.3
		c0.8,0.2,1.6,0.5,2.2,1c0.6,0.5,1.1,1.1,1.4,1.8c0.3,0.8,0.5,1.8,0.5,3v7.4c0,1,0,1.7,0.1,2.1c0,0.4,0.1,0.8,0.2,1
		c0.3,0.5,0.6,0.8,1.2,0.8c0.2,0,0.4,0,0.6,0C461.2,63.3,461.4,63.3,461.5,63.3z M454.3,55.4l-0.9,0.2c-0.6,0.1-1.2,0.3-1.8,0.5
		c-0.6,0.2-1,0.5-1.4,0.8c-0.4,0.4-0.7,0.8-1,1.3c-0.2,0.5-0.4,1.1-0.4,1.9c0,1.1,0.2,1.9,0.5,2.3c0.3,0.4,0.9,0.7,1.5,0.7
		c1.1,0,1.9-0.4,2.5-1.2c0.6-0.8,0.9-1.9,0.9-3.3V55.4z"/>
	<path class="st0" d="M474,64.8c-0.7-0.1-1.6-0.1-2.5-0.1s-1.8-0.1-2.6-0.1c-0.9,0-1.8,0-2.7,0.1s-1.7,0.1-2.4,0.1
		c0-0.1,0-0.2-0.1-0.4c0-0.1,0-0.3,0-0.4c0-0.2,0-0.3,0.1-0.4c0.1-0.1,0.2-0.1,0.3-0.1c0.9-0.2,1.5-0.4,1.8-0.5
		c0.3-0.2,0.5-0.5,0.5-0.9v-22c0-0.8-0.2-1.5-0.5-1.9c-0.3-0.4-1-0.7-1.9-0.8c-0.4-0.1-0.5-0.3-0.5-0.7c0-0.1,0-0.2,0-0.3
		c0-0.1,0-0.3,0.1-0.3c0.2,0,0.4,0,0.7,0c0.3,0,0.7,0,1,0c0.4,0,0.7,0,1.1-0.1c0.4,0,0.7-0.1,1-0.1c0.7-0.1,1.4-0.2,2-0.3
		c0.6-0.1,1.1-0.2,1.3-0.2c0.4,0,0.7,0.2,0.7,0.6c0,0.3,0,0.7-0.1,1.2c-0.1,0.5-0.1,1.2-0.1,2.1V62c0,0.4,0.2,0.7,0.5,0.9
		c0.3,0.2,1,0.4,1.8,0.5c0.3,0.1,0.5,0.2,0.5,0.5C474.1,64.4,474.1,64.6,474,64.8z"/>
	<path class="st0" d="M488.9,40.4c0-0.3,0-0.5-0.1-0.7c-0.1-0.2-0.2-0.3-0.4-0.5c-0.2-0.1-0.5-0.3-0.9-0.4c-0.4-0.1-0.9-0.2-1.5-0.3
		c-0.3-0.1-0.4-0.3-0.4-0.8c0-0.1,0-0.3,0-0.4s0-0.3,0.1-0.4c1.2,0.1,2.3,0.1,3.2,0.2s1.7,0,2.4,0h8.6c1.3,0,2.4,0,3.3-0.1
		s1.5-0.1,1.8-0.1c0.3,0,0.5,0.1,0.7,0.4c0.1,0.2,0.2,0.6,0.2,1.2c0.1,0.6,0.2,1.2,0.3,1.9c0.1,0.5,0.2,0.9,0.3,1.4
		c0.1,0.4,0.3,1,0.5,1.6c-0.1,0.1-0.3,0.1-0.4,0.2c-0.2,0.1-0.4,0.1-0.5,0.1c-0.3,0-0.5-0.1-0.6-0.4c-0.3-0.7-0.7-1.4-1-1.9
		c-0.3-0.5-0.7-0.9-1.1-1.3c-0.4-0.3-0.9-0.6-1.4-0.7c-0.5-0.1-1.2-0.2-2-0.2h-5.5V50h5.8c0.5,0,0.8-0.2,1-0.7s0.4-1.2,0.5-2.1
		c0.1-0.4,0.4-0.5,0.8-0.5c0.1,0,0.2,0,0.4,0c0.2,0,0.3,0,0.4,0.1c-0.1,0.6-0.1,1.4-0.1,2.2c0,0.9-0.1,1.6-0.1,2.2
		c0,0.5,0,1.1,0,1.8c0,0.7,0.1,1.5,0.2,2.3c-0.1,0.1-0.2,0.1-0.4,0.1s-0.3,0-0.4,0c-0.5,0-0.8-0.2-0.8-0.6c-0.1-0.9-0.3-1.6-0.5-2
		c-0.2-0.5-0.6-0.7-1-0.7h-5.8v9.4c0,0.3,0.1,0.5,0.3,0.7c0.2,0.2,0.5,0.3,0.8,0.5s0.7,0.2,1.2,0.3c0.4,0.1,0.9,0.1,1.4,0.2
		c0.3,0,0.5,0.3,0.5,0.7c0,0.1,0,0.2,0,0.4c0,0.2,0,0.3-0.1,0.5c-0.4,0-0.8,0-1.2,0c-0.4,0-0.8,0-1.2-0.1c-0.7-0.1-1.5-0.1-2.3-0.1
		c-0.8,0-1.6,0-2.5,0c-0.4,0-0.8,0-1.3,0c-0.5,0-0.9,0-1.4,0.1c-0.5,0-1,0-1.5,0.1c-0.5,0-0.9,0-1.4,0.1c-0.1-0.1-0.1-0.3-0.1-0.4
		c0-0.2,0-0.3,0-0.4c0-0.4,0.1-0.6,0.4-0.7c0.9-0.2,1.7-0.4,2.2-0.7c0.5-0.2,0.8-0.6,0.8-1.2V40.4z"/>
	<path class="st0" d="M506.8,55.6c0-1.4,0.2-2.6,0.7-3.8c0.5-1.2,1.2-2.2,2-3c0.9-0.9,1.9-1.5,3.1-2c1.2-0.5,2.5-0.7,3.9-0.7
		c1.5,0,2.8,0.2,4,0.7c1.2,0.5,2.2,1.1,3.1,2c0.9,0.9,1.5,1.9,2,3c0.5,1.2,0.7,2.4,0.7,3.8c0,1.4-0.2,2.6-0.7,3.8
		c-0.5,1.2-1.2,2.2-2.1,3s-1.9,1.5-3.1,2c-1.2,0.5-2.5,0.7-3.9,0.7c-1.5,0-2.8-0.2-4-0.7c-1.2-0.5-2.2-1.1-3.1-2s-1.5-1.8-2-3
		C507,58.2,506.8,56.9,506.8,55.6z M512.1,54.7c0,2.6,0.4,4.6,1.3,6.2c0.9,1.5,2.1,2.3,3.7,2.3c1.5,0,2.5-0.6,3.2-1.8
		c0.6-1.2,0.9-2.9,0.9-5c0-2.5-0.4-4.6-1.3-6.2c-0.9-1.6-2.1-2.4-3.7-2.4c-1.5,0-2.5,0.6-3.2,1.8C512.4,50.9,512.1,52.6,512.1,54.7z
		"/>
	<path class="st0" d="M531.7,50.2c0-0.7-0.1-1.2-0.3-1.5c-0.2-0.3-0.8-0.5-1.7-0.6c-0.4-0.1-0.6-0.3-0.6-0.6c0-0.1,0-0.2,0-0.3
		c0-0.1,0-0.3,0.1-0.4c0.2,0,0.4,0,0.7,0c0.3,0,0.6,0,1,0c0.3,0,0.7,0,1-0.1c0.3,0,0.7-0.1,0.9-0.1c0.6-0.1,1.3-0.2,1.8-0.3
		s1-0.2,1.2-0.2c0.3,0,0.4,0.1,0.5,0.2c0.1,0.1,0.1,0.3,0.1,0.5v10.8c0,1.6,0.2,2.8,0.6,3.4c0.4,0.6,1.1,0.9,2,0.9
		c1.3,0,2.3-0.4,3.2-1.3c0.9-0.8,1.3-2.1,1.3-3.8v-6.4c0-0.3,0-0.6-0.1-0.9c0-0.2-0.1-0.4-0.3-0.6c-0.1-0.2-0.3-0.3-0.6-0.4
		c-0.3-0.1-0.6-0.2-1.1-0.2c-0.2-0.1-0.3-0.1-0.4-0.2s-0.2-0.2-0.2-0.4c0-0.1,0-0.2,0-0.3c0-0.1,0-0.3,0.1-0.4c0.2,0,0.4,0,0.7,0
		c0.3,0,0.6,0,1,0c0.3,0,0.7,0,1.1-0.1c0.3,0,0.7-0.1,0.9-0.1c0.6-0.1,1.2-0.2,1.8-0.3c0.6-0.1,1-0.2,1.2-0.2c0.4,0,0.6,0.2,0.6,0.6
		v14c0,0.3,0,0.6,0.1,0.9c0,0.2,0.1,0.4,0.3,0.6c0.1,0.2,0.3,0.3,0.6,0.4c0.3,0.1,0.7,0.2,1.1,0.2c0.4,0,0.5,0.2,0.5,0.5
		c0,0.1,0,0.3,0,0.4s0,0.3-0.1,0.3c-0.4,0-0.9,0-1.7,0.1c-0.8,0-1.4,0.1-2,0.2c-0.6,0.1-1.2,0.2-1.8,0.3c-0.6,0.1-1,0.2-1.2,0.2
		c-0.3,0-0.4,0-0.5-0.1c-0.1-0.1-0.1-0.3-0.1-0.5v-3c-0.9,1.2-1.9,2.1-3,2.8c-1.1,0.7-2.2,1.1-3.4,1.1c-1.7,0-3.1-0.5-4-1.4
		c-1-0.9-1.5-2.3-1.5-4.2V50.2z"/>
	<path class="st0" d="M572.9,62c0,0.4,0.2,0.7,0.5,0.9s1,0.4,1.8,0.5c0.1,0,0.2,0.1,0.3,0.1c0.1,0.1,0.1,0.2,0.1,0.4
		c0,0.2,0,0.3,0,0.4c0,0.1,0,0.2-0.1,0.4c-0.7-0.1-1.5-0.1-2.2-0.1c-0.7,0-1.6-0.1-2.7-0.1c-0.9,0-1.7,0-2.5,0.1
		c-0.8,0-1.5,0.1-2.3,0.1c-0.1-0.1-0.1-0.4-0.1-0.8c0-0.3,0.2-0.5,0.5-0.5c0.7-0.1,1.2-0.3,1.5-0.5c0.3-0.2,0.4-0.5,0.4-0.9v-8.2
		c0-1.7-0.2-2.8-0.6-3.4c-0.4-0.6-1.1-0.9-2-0.9c-1.3,0-2.3,0.4-3.2,1.3c-0.9,0.9-1.3,2.1-1.3,3.8V62c0,0.4,0.1,0.7,0.4,0.9
		c0.3,0.2,0.7,0.4,1.5,0.5c0.3,0.1,0.5,0.2,0.5,0.5c0,0.4,0,0.7-0.1,0.8c-0.7-0.1-1.5-0.1-2.3-0.1c-0.8,0-1.6-0.1-2.5-0.1
		c-1.1,0-2,0-2.8,0.1s-1.5,0.1-2.2,0.1c0-0.1,0-0.2-0.1-0.4c0-0.1,0-0.3,0-0.4c0-0.2,0-0.3,0.1-0.4c0.1-0.1,0.2-0.1,0.3-0.1
		c0.9-0.2,1.5-0.4,1.8-0.5c0.3-0.2,0.5-0.5,0.5-0.9V50.9c0-0.8-0.2-1.5-0.5-1.9c-0.3-0.4-1-0.7-1.9-0.8c-0.4-0.1-0.5-0.3-0.5-0.7
		c0-0.1,0-0.2,0-0.3s0-0.2,0.1-0.4c0.2,0,0.4,0,0.7,0c0.3,0,0.7,0,1,0c0.4,0,0.7,0,1.1-0.1c0.4,0,0.7-0.1,1-0.1
		c0.7-0.1,1.4-0.2,2-0.3c0.6-0.1,1.1-0.2,1.3-0.2c0.4,0,0.7,0.2,0.7,0.6c0,0.3,0,0.7-0.1,1.2c-0.1,0.5-0.1,1.2-0.1,2.1
		c0.9-1.2,1.9-2.1,3-2.9c1.1-0.7,2.2-1.1,3.4-1.1c1.7,0,3.1,0.5,4,1.4c1,1,1.5,2.4,1.5,4.3V62z"/>
	<path class="st0" d="M596.7,60.7c0,0.3,0,0.6,0,0.9c0,0.2,0.1,0.4,0.3,0.6c0.1,0.2,0.3,0.3,0.6,0.4c0.3,0.1,0.7,0.2,1.1,0.2
		c0.4,0.1,0.6,0.2,0.6,0.5c0,0.1,0,0.3,0,0.4s0,0.3-0.1,0.3c-0.4,0-0.9,0-1.7,0.1c-0.8,0-1.4,0.1-2,0.2c-0.6,0.1-1.2,0.2-1.8,0.3
		c-0.6,0.1-1,0.2-1.2,0.2c-0.3,0-0.4,0-0.5-0.1c-0.1-0.1-0.1-0.3-0.1-0.5v-2.5c-0.4,0.5-0.7,1-1.1,1.4c-0.4,0.4-0.8,0.8-1.3,1.1
		c-0.5,0.3-1,0.5-1.7,0.7c-0.6,0.2-1.3,0.3-2.1,0.3c-1.1,0-2.1-0.2-3-0.6c-0.9-0.4-1.8-1-2.5-1.7c-0.7-0.8-1.2-1.7-1.6-2.8
		c-0.4-1.1-0.6-2.4-0.6-3.8c0-1.5,0.3-2.9,0.9-4.2c0.6-1.2,1.4-2.3,2.3-3.2c0.9-0.9,1.9-1.5,3-2c1.1-0.5,2.1-0.7,3.2-0.7
		c0.8,0,1.6,0.1,2.2,0.2c0.7,0.2,1.5,0.4,2.3,0.7v-7c0-0.9-0.1-1.5-0.4-1.9c-0.3-0.4-0.9-0.7-2-0.8c-0.2-0.1-0.3-0.1-0.4-0.2
		c-0.1-0.1-0.2-0.2-0.2-0.5c0-0.2,0-0.4,0.1-0.7c0.2,0,0.4,0,0.8,0c0.3,0,0.6,0,1,0c0.4,0,0.7,0,1.1-0.1c0.4,0,0.7-0.1,1-0.1
		c0.7-0.1,1.4-0.2,2-0.3c0.6-0.1,1.1-0.2,1.3-0.2c0.5,0,0.7,0.2,0.7,0.6c0,0.5,0,1.1-0.1,1.8c-0.1,0.7-0.1,1.5-0.1,2.4V60.7z
		 M591.9,49.8c-1.3-1.3-2.7-1.9-4.4-1.9c-1.5,0-2.5,0.6-3.2,1.9c-0.7,1.3-1,3-1,5.2c0,1.1,0.1,2.1,0.3,3c0.2,0.9,0.5,1.8,0.8,2.4
		c0.4,0.7,0.8,1.2,1.4,1.6c0.6,0.4,1.3,0.6,2.1,0.6c0.5,0,1-0.2,1.5-0.5c0.5-0.3,0.9-0.7,1.3-1.2c0.4-0.5,0.7-1.1,0.9-1.7
		c0.2-0.6,0.4-1.3,0.4-1.9V49.8z"/>
	<path class="st0" d="M620,63.3c0.4,0,0.6,0.4,0.6,1c-0.4,0.3-0.8,0.4-1.4,0.6s-1.1,0.2-1.7,0.2c-1.3,0-2.2-0.3-2.9-0.9
		c-0.7-0.6-1.1-1.3-1.2-2.1c-0.6,1.1-1.3,1.9-2.2,2.4c-0.9,0.5-2,0.7-3.3,0.7c-0.6,0-1.2,0-2-0.1c-0.7-0.1-1.4-0.3-2-0.6
		c-0.6-0.3-1.1-0.7-1.5-1.3c-0.4-0.6-0.6-1.3-0.6-2.2c0-1,0.3-1.9,0.8-2.6s1.2-1.3,2-1.8c0.8-0.5,1.7-0.9,2.6-1.2
		c1-0.3,1.8-0.5,2.7-0.7c0.4-0.1,0.7-0.2,1.1-0.3c0.4-0.1,0.7-0.2,0.9-0.2c0.3-0.1,0.5-0.2,0.6-0.4c0.1-0.2,0.1-0.6,0.1-1.2
		c0-1.4-0.2-2.5-0.6-3.3c-0.4-0.8-1.1-1.2-2.1-1.2c-0.8,0-1.4,0.3-1.7,0.8c-0.4,0.5-0.7,1.3-1,2.4c-0.1,0.3-0.3,0.5-0.7,0.7
		c-0.4,0.2-0.9,0.3-1.5,0.5c-0.3,0.1-0.7,0.2-1,0.2c-0.4,0.1-0.7,0.1-0.9,0.1c-0.2,0-0.3-0.1-0.3-0.2c-0.1-0.1-0.1-0.4-0.1-0.7
		c0-0.7,0.3-1.4,0.8-2.1c0.5-0.7,1.2-1.3,2-1.8c0.8-0.5,1.6-0.9,2.6-1.2c0.9-0.3,1.8-0.5,2.7-0.5c1,0,2,0.1,2.8,0.3
		c0.8,0.2,1.6,0.5,2.2,1c0.6,0.5,1.1,1.1,1.4,1.8c0.3,0.8,0.5,1.8,0.5,3v7.4c0,1,0,1.7,0.1,2.1c0,0.4,0.1,0.8,0.2,1
		c0.3,0.5,0.6,0.8,1.2,0.8c0.2,0,0.4,0,0.6,0C619.7,63.3,619.9,63.3,620,63.3z M612.8,55.4l-0.9,0.2c-0.6,0.1-1.2,0.3-1.8,0.5
		c-0.6,0.2-1,0.5-1.4,0.8c-0.4,0.4-0.7,0.8-1,1.3c-0.2,0.5-0.4,1.1-0.4,1.9c0,1.1,0.2,1.9,0.5,2.3c0.3,0.4,0.9,0.7,1.5,0.7
		c1.1,0,1.9-0.4,2.5-1.2c0.6-0.8,0.9-1.9,0.9-3.3V55.4z"/>
	<path class="st0" d="M633.1,61.8c0.3-0.2,0.5-0.3,0.7-0.3c0.3,0,0.6,0.3,0.9,0.9c-1.2,1.1-2.2,1.8-3.1,2.1
		c-0.9,0.3-1.8,0.5-2.8,0.5c-0.6,0-1.1-0.1-1.6-0.2c-0.5-0.1-1-0.4-1.4-0.8c-0.4-0.4-0.8-0.9-1-1.5s-0.4-1.4-0.4-2.4V48.6h-2.5v-1
		c0-0.1,0-0.3,0.1-0.4c0.1-0.2,0.2-0.3,0.5-0.3c0.8,0,1.5-0.2,2.1-0.7c0.6-0.4,1.2-1.1,1.6-2c0.3-0.6,0.7-1.2,1-1.6s0.7-0.6,1.1-0.6
		h0.9v4.4h4.9c0,0.9-0.1,1.5-0.2,1.7s-0.4,0.4-0.7,0.4h-4V59c0,0.8,0,1.5,0.1,2c0.1,0.5,0.1,0.9,0.3,1.1s0.3,0.4,0.5,0.5
		c0.2,0.1,0.5,0.1,0.7,0.1c0.3,0,0.7-0.1,1.1-0.2C632.3,62.3,632.7,62.1,633.1,61.8z"/>
	<path class="st0" d="M641.4,64.6c-1.1,0-2,0-2.8,0.1c-0.8,0-1.5,0.1-2.3,0.1c-0.1-0.3-0.1-0.5-0.1-0.8c0-0.2,0-0.3,0.1-0.4
		c0.1-0.1,0.2-0.1,0.3-0.1c0.9-0.2,1.5-0.4,1.8-0.5c0.3-0.2,0.5-0.5,0.5-0.9V50.9c0-0.8-0.1-1.5-0.4-1.9c-0.3-0.4-0.9-0.7-2-0.8
		c-0.4-0.1-0.5-0.3-0.5-0.7c0-0.1,0-0.2,0-0.3s0-0.2,0.1-0.4c0.2,0,0.4,0,0.7,0c0.3,0,0.7,0,1,0c0.4,0,0.7,0,1.1-0.1
		c0.4,0,0.7-0.1,1-0.1c0.7-0.1,1.4-0.2,2-0.3c0.6-0.1,1.1-0.2,1.3-0.2c0.4,0,0.7,0.2,0.7,0.6c0,0.3,0,0.7-0.1,1.2
		c-0.1,0.5-0.1,1.2-0.1,2.1v12c0,0.4,0.2,0.7,0.5,0.9c0.4,0.2,1,0.4,1.8,0.5c0.3,0.1,0.5,0.2,0.5,0.5c0,0.1,0,0.3,0,0.4
		c0,0.1,0,0.3-0.1,0.4c-0.7-0.1-1.5-0.1-2.3-0.1C643.4,64.6,642.5,64.6,641.4,64.6z M638.3,39.9c0-0.9,0.3-1.6,0.9-2.2
		c0.6-0.6,1.3-0.9,2.2-0.9c0.9,0,1.6,0.3,2.2,0.9c0.6,0.6,0.8,1.3,0.8,2.2c0,0.9-0.3,1.6-0.8,2.2c-0.6,0.6-1.3,0.9-2.2,0.9
		c-0.9,0-1.6-0.3-2.2-0.9C638.6,41.5,638.3,40.8,638.3,39.9z"/>
	<path class="st0" d="M649,55.6c0-1.4,0.2-2.6,0.7-3.8c0.5-1.2,1.2-2.2,2-3c0.9-0.9,1.9-1.5,3.1-2c1.2-0.5,2.5-0.7,3.9-0.7
		c1.5,0,2.8,0.2,4,0.7c1.2,0.5,2.2,1.1,3.1,2c0.9,0.9,1.5,1.9,2,3c0.5,1.2,0.7,2.4,0.7,3.8c0,1.4-0.2,2.6-0.7,3.8
		c-0.5,1.2-1.2,2.2-2.1,3s-1.9,1.5-3.1,2c-1.2,0.5-2.5,0.7-3.9,0.7c-1.5,0-2.8-0.2-4-0.7c-1.2-0.5-2.2-1.1-3.1-2s-1.5-1.8-2-3
		C649.2,58.2,649,56.9,649,55.6z M654.3,54.7c0,2.6,0.4,4.6,1.3,6.2c0.9,1.5,2.1,2.3,3.7,2.3c1.5,0,2.5-0.6,3.2-1.8
		c0.6-1.2,0.9-2.9,0.9-5c0-2.5-0.4-4.6-1.3-6.2c-0.9-1.6-2.1-2.4-3.7-2.4c-1.5,0-2.5,0.6-3.2,1.8C654.6,50.9,654.3,52.6,654.3,54.7z
		"/>
	<path class="st0" d="M690.8,62c0,0.4,0.2,0.7,0.5,0.9s1,0.4,1.8,0.5c0.1,0,0.2,0.1,0.3,0.1c0.1,0.1,0.1,0.2,0.1,0.4
		c0,0.2,0,0.3,0,0.4c0,0.1,0,0.2-0.1,0.4c-0.7-0.1-1.5-0.1-2.2-0.1c-0.7,0-1.6-0.1-2.7-0.1c-0.9,0-1.7,0-2.5,0.1
		c-0.8,0-1.5,0.1-2.3,0.1c-0.1-0.1-0.1-0.4-0.1-0.8c0-0.3,0.2-0.5,0.5-0.5c0.7-0.1,1.2-0.3,1.5-0.5c0.3-0.2,0.4-0.5,0.4-0.9v-8.2
		c0-1.7-0.2-2.8-0.6-3.4c-0.4-0.6-1.1-0.9-2-0.9c-1.3,0-2.3,0.4-3.2,1.3c-0.9,0.9-1.3,2.1-1.3,3.8V62c0,0.4,0.1,0.7,0.4,0.9
		c0.3,0.2,0.7,0.4,1.5,0.5c0.3,0.1,0.5,0.2,0.5,0.5c0,0.4,0,0.7-0.1,0.8c-0.7-0.1-1.5-0.1-2.3-0.1c-0.8,0-1.6-0.1-2.5-0.1
		c-1.1,0-2,0-2.8,0.1s-1.5,0.1-2.2,0.1c0-0.1,0-0.2-0.1-0.4c0-0.1,0-0.3,0-0.4c0-0.2,0-0.3,0.1-0.4c0.1-0.1,0.2-0.1,0.3-0.1
		c0.9-0.2,1.5-0.4,1.8-0.5c0.3-0.2,0.5-0.5,0.5-0.9V50.9c0-0.8-0.2-1.5-0.5-1.9c-0.3-0.4-1-0.7-1.9-0.8c-0.4-0.1-0.5-0.3-0.5-0.7
		c0-0.1,0-0.2,0-0.3s0-0.2,0.1-0.4c0.2,0,0.4,0,0.7,0c0.3,0,0.7,0,1,0c0.4,0,0.7,0,1.1-0.1c0.4,0,0.7-0.1,1-0.1
		c0.7-0.1,1.4-0.2,2-0.3c0.6-0.1,1.1-0.2,1.3-0.2c0.4,0,0.7,0.2,0.7,0.6c0,0.3,0,0.7-0.1,1.2c-0.1,0.5-0.1,1.2-0.1,2.1
		c0.9-1.2,1.9-2.1,3-2.9c1.1-0.7,2.2-1.1,3.4-1.1c1.7,0,3.1,0.5,4,1.4c1,1,1.5,2.4,1.5,4.3V62z"/>
</g>
</svg>
