<?xml version="1.0" encoding="utf-8"?>
<!-- Generator: Adobe Illustrator 19.2.1, SVG Export Plug-In . SVG Version: 6.00 Build 0)  -->
<svg version="1.1" id="Layer_1" xmlns="http://www.w3.org/2000/svg" xmlns:xlink="http://www.w3.org/1999/xlink" x="0px" y="0px"
	 viewBox="0 0 48 48" style="enable-background:new 0 0 48 48;" xml:space="preserve">
<style type="text/css">
	.st0{fill:#00658A;}
	.st1{fill:#005473;}
	.st2{fill:#FFFFFF;}
	.st3{fill:#A9E1E9;}
	.st4{fill:#35BED1;}
</style>
<g>
	<ellipse class="st0" cx="24" cy="24" rx="24" ry="24"/>
	<path class="st1" d="M48,24c0-2.3-0.3-4.5-0.9-6.6l-12.3-7.1v4.1v18.7l-6.1,5.8H14.1L29,47.5C39.9,45.2,48,35.5,48,24z"/>
	<polygon class="st2" points="34.8,14.4 34.8,10.1 13.9,10.1 13.9,14.4 13.9,38.8 30.2,38.8 34.8,34.2 	"/>
	<polygon class="st3" points="30.2,38.8 34.8,34.2 30.2,34.2 	"/>
	<path class="st3" d="M30.9,14.6h-13c-0.1,0-0.2-0.1-0.2-0.2c0-0.1,0.1-0.2,0.2-0.2h13c0.1,0,0.2,0.1,0.2,0.2
		C31.1,14.5,31,14.6,30.9,14.6z"/>
	<path class="st3" d="M30.9,15.7h-13c-0.1,0-0.2-0.1-0.2-0.2c0-0.1,0.1-0.2,0.2-0.2h13c0.1,0,0.2,0.1,0.2,0.2
		C31.1,15.7,31,15.7,30.9,15.7z"/>
	<path class="st3" d="M30.9,16.9h-13c-0.1,0-0.2-0.1-0.2-0.2c0-0.1,0.1-0.2,0.2-0.2h13c0.1,0,0.2,0.1,0.2,0.2
		C31.1,16.8,31,16.9,30.9,16.9z"/>
	<path class="st3" d="M30.9,18.1h-13c-0.1,0-0.2-0.1-0.2-0.2c0-0.1,0.1-0.2,0.2-0.2h13c0.1,0,0.2,0.1,0.2,0.2
		C31.1,18,31,18.1,30.9,18.1z"/>
	<path class="st3" d="M30.9,19.3h-13c-0.1,0-0.2-0.1-0.2-0.2c0-0.1,0.1-0.2,0.2-0.2h13c0.1,0,0.2,0.1,0.2,0.2
		C31.1,19.2,31,19.3,30.9,19.3z"/>
	<path class="st3" d="M30.9,20.5h-13c-0.1,0-0.2-0.1-0.2-0.2c0-0.1,0.1-0.2,0.2-0.2h13c0.1,0,0.2,0.1,0.2,0.2
		C31.1,20.4,31,20.5,30.9,20.5z"/>
	<path class="st3" d="M30.9,21.7h-13c-0.1,0-0.2-0.1-0.2-0.2c0-0.1,0.1-0.2,0.2-0.2h13c0.1,0,0.2,0.1,0.2,0.2
		C31.1,21.6,31,21.7,30.9,21.7z"/>
	<path class="st3" d="M30.9,22.9h-13c-0.1,0-0.2-0.1-0.2-0.2c0-0.1,0.1-0.2,0.2-0.2h13c0.1,0,0.2,0.1,0.2,0.2
		C31.1,22.8,31,22.9,30.9,22.9z"/>
	<path class="st3" d="M23.8,24.1h-6c-0.1,0-0.2-0.1-0.2-0.2c0-0.1,0.1-0.2,0.2-0.2h6c0.1,0,0.2,0.1,0.2,0.2
		C24,24,23.9,24.1,23.8,24.1z"/>
	<circle class="st4" cx="34.3" cy="24.1" r="4.7"/>
	<g>
		<path class="st2" d="M33.8,26.9c-0.2,0-0.3-0.1-0.4-0.2l-2.5-2.5l0.8-0.8l2.1,2.1l3.1-3.1l0.8,0.8l-3.5,3.5
			C34.1,26.8,34,26.9,33.8,26.9z"/>
	</g>
</g>
</svg>
