<?xml version="1.0" encoding="utf-8"?>
<!-- Generator: Adobe Illustrator 19.2.1, SVG Export Plug-In . SVG Version: 6.00 Build 0)  -->
<svg version="1.1" id="Layer_1" xmlns="http://www.w3.org/2000/svg" xmlns:xlink="http://www.w3.org/1999/xlink" x="0px" y="0px"
	 viewBox="0 0 47.8 47.8" style="enable-background:new 0 0 47.8 47.8;" xml:space="preserve">
<style type="text/css">
	.st0{fill:#A9E1E9;}
	.st1{fill:#005473;}
	.st2{fill:#00658A;}
	.st3{fill:#FFFFFF;}
	.st4{fill:#2B5967;}
	.st5{fill:#9BD2D6;}
</style>
<g>
	<circle class="st0" cx="23.9" cy="23.9" r="23.9"/>
	<g>
		<path class="st1" d="M34.9,25c0,5.5-3,9.9-6.8,9.9v-2.7c2-0.7,3.4-2.5,3.4-4.7c0-2.8-2.3-5-5.1-5c-0.4,0-0.7,0-1,0.1l4.3-7.2
			C32.7,16.4,34.9,20.3,34.9,25z"/>
		<g>
			<path class="st1" d="M33.2,8L30,6.2c-0.1,0-0.2,0-0.2,0.1c0,0.1,0,0.2,0.1,0.2L30,6.6l-1.7,3.2l2.9,1.6l1.8-3.2L33,8.3
				c0.1,0,0.2,0,0.2-0.1C33.3,8.1,33.3,8,33.2,8z"/>
			<path class="st1" d="M22.7,26.9l-0.1-0.1l0.8-1.5l-2.9-1.6l-0.8,1.5l-0.1-0.1c-0.1,0-0.2,0-0.2,0.1c0,0.1,0,0.2,0.1,0.2l0.1,0.1
				l0,0l2.9,1.6l0,0l0.1,0.1c0.1,0,0.2,0,0.2-0.1C22.8,27,22.8,26.9,22.7,26.9z"/>
			<rect x="18.1" y="15.2" transform="matrix(0.485 -0.8745 0.8745 0.485 -2.4577 31.6097)" class="st2" width="15" height="5.4"/>
			<path class="st2" d="M32.3,12.4c0.2-0.3,0.1-0.6,0-0.7L27.3,9c-0.2-0.1-0.4,0-0.6,0.3l0,0c-0.1,0.3-0.1,0.6,0,0.7l4.9,2.7
				C31.9,12.8,32.1,12.6,32.3,12.4L32.3,12.4z"/>
			<path class="st2" d="M24.7,26c0.1-0.3,0.1-0.6,0-0.7l-4.9-2.7c-0.2-0.1-0.4,0-0.6,0.3l0,0c-0.1,0.3-0.1,0.6,0,0.7l4.9,2.7
				C24.3,26.4,24.6,26.3,24.7,26L24.7,26z"/>
		</g>
		<path class="st2" d="M31.8,37.5c0,0.3-0.2,0.5-0.5,0.5h-8.6c-0.3,0-0.5-0.2-0.5-0.5l2.6-5.6c0-0.3,0.2-0.5,0.5-0.5h3.3
			c0.3,0,0.5,0.2,0.5,0.5L31.8,37.5z"/>
		<path class="st1" d="M34.9,38.8c0-0.1,0-0.1,0-0.2c0-1.1-1.6-2-3.6-2H15.1c-2,0-3.6,0.9-3.6,2c0,0.1,0,0.1,0,0.2H34.9z"/>
		<polygon class="st2" points="26.2,32.7 23.6,31.3 23.9,30.8 26.4,32.2 		"/>
		<polygon class="st2" points="25,35 16.7,30.5 17,30.1 25.2,34.5 		"/>
		<path class="st1" d="M15.7,29.7c0.2-0.4,0.5-0.6,0.8-0.4l3.8,2.1c0.2,0.1,0.3,0.5,0.1,0.9l0,0c-0.2,0.4-0.5,0.6-0.8,0.4l-3.8-2.1
			C15.5,30.5,15.5,30.1,15.7,29.7L15.7,29.7z"/>
		<path class="st3" d="M30,19.3c0,1.1-0.9,2.1-2.1,2.1c-1.1,0-2.1-0.9-2.1-2.1c0-1.1,0.9-2.1,2.1-2.1C29.1,17.2,30,18.1,30,19.3z"/>
		<circle class="st2" cx="27.9" cy="19.3" r="1.4"/>
		<circle class="st3" cx="27" cy="34.1" r="1.2"/>
		<circle class="st4" cx="27" cy="34.1" r="0.6"/>
		<path class="st1" d="M14.5,25.8c0,0-0.1,0.1-0.1,0.1c-0.4,0.7,0,1.6,0.9,2.1l6.8,3.7c0.8,0.5,1.8,0.3,2.2-0.4c0,0,0-0.1,0.1-0.1
			L14.5,25.8z"/>
	</g>
	<path class="st5" d="M47.8,23.9c0-2.8-0.5-5.5-1.4-8c-4.4-2.5-8.8-5.1-13.1-7.6c0,0.1-0.1,0.1-0.2,0.1l-0.1-0.1l-1.6,3l1,0.6
		c0.2,0.1,0.2,0.4,0,0.7c-0.1,0.3-0.4,0.4-0.6,0.3l-0.4-0.2l0,0l0.3,0.1L30,15.5c2.8,1.2,4.9,5,4.9,9.5c0,4.3-1.9,8-4.5,9.3l1,2.2
		c1.9,0,3.5,0.9,3.5,2c0,0.1,0,0.1,0,0.2H11.7l15.1,8.8C38.6,46.1,47.8,36.1,47.8,23.9z"/>
</g>
</svg>
