<?xml version="1.0" encoding="utf-8"?>
<!-- Generator: Adobe Illustrator 19.2.1, SVG Export Plug-In . SVG Version: 6.00 Build 0)  -->
<svg version="1.1" id="Layer_1" xmlns="http://www.w3.org/2000/svg" xmlns:xlink="http://www.w3.org/1999/xlink" x="0px" y="0px"
	 viewBox="0 0 47.7 47.7" style="enable-background:new 0 0 47.7 47.7;" xml:space="preserve">
<style type="text/css">
	.st0{fill:#FFC76A;}
	.st1{fill:#E67860;}
	.st2{fill:#FF8969;}
	.st3{fill:#00658A;}
	.st4{fill:#FFFFFF;}
	.st5{fill:#E6E6E6;}
	.st6{fill:#F0B361;}
</style>
<g>
	<circle class="st0" cx="23.8" cy="23.8" r="23.8"/>
	<g>
		<path class="st1" d="M24.6,27.5c-0.7,0.2-1.3-1.1-2-1.3c-0.7-0.2-1.8,0.7-2.4,0.2c-0.4-0.4-0.5-1.3-0.6-2.1l-4.2,13.9l4.1-1.1
			l3.3,2.9l2.8-13.3C25.2,27.1,24.9,27.4,24.6,27.5z"/>
		<path class="st2" d="M23.1,27.5c0.7,0.2,1.3-1.1,2-1.3c0.7-0.2,1.8,0.7,2.4,0.2c0.4-0.4,0.5-1.3,0.6-2.1l4.2,13.9l-4.1-1.1L25,40
			l-2.8-13.3C22.5,27.1,22.8,27.4,23.1,27.5z"/>
		<path class="st3" d="M35.7,19c0,1.2-1.5,2.1-1.9,3.2c-0.4,1.1,0.3,2.8-0.4,3.7c-0.7,0.9-2.5,0.8-3.4,1.5c-0.9,0.7-1.4,2.4-2.5,2.8
			c-1.1,0.3-2.4-0.8-3.7-0.8c-1.2,0-2.6,1.1-3.7,0.8c-1.1-0.4-1.6-2.1-2.5-2.8c-0.9-0.7-2.7-0.6-3.4-1.5c-0.7-0.9,0-2.6-0.4-3.7
			c-0.4-1.1-1.9-2-1.9-3.2c0-1.2,1.5-2.1,1.9-3.2c0.4-1.1-0.3-2.8,0.4-3.7c0.7-0.9,2.5-0.8,3.4-1.5c0.9-0.7,1.4-2.4,2.5-2.8
			c1.1-0.4,2.5,0.8,3.7,0.8c1.2,0,2.6-1.2,3.7-0.8c1.1,0.4,1.6,2.1,2.5,2.8c1,0.7,2.7,0.6,3.4,1.5c0.7,0.9,0,2.6,0.4,3.7
			C34.1,16.8,35.7,17.8,35.7,19z"/>
		<g>
			<path class="st4" d="M29.7,13.1c-3.2-3.2-8.4-3.2-11.6,0c-3.2,3.2-3.2,8.4,0,11.6c0,0,0,0,0,0L29.7,13.1
				C29.7,13.2,29.7,13.2,29.7,13.1z"/>
			<path class="st5" d="M18.1,24.8c3.2,3.2,8.4,3.2,11.6,0c3.2-3.2,3.2-8.4,0-11.6L18.1,24.8z"/>
		</g>
	</g>
	<path class="st6" d="M47.7,23.8c0-1.5-0.1-2.9-0.4-4.3c-6.2-3.6-12.4-7.2-18.7-10.8c0.4,0.6,0.8,1.4,1.4,1.8c1,0.7,2.7,0.6,3.4,1.5
		c0.7,0.9,0,2.6,0.4,3.7c0.4,1.1,1.9,2,1.9,3.2c0,1.2-1.5,2.1-1.9,3.2c-0.4,1.1,0.3,2.8-0.4,3.7c-0.7,0.9-2.5,0.8-3.4,1.5
		c-0.3,0.2-0.5,0.5-0.7,0.8l3,10l-4.1-1.1L25,40l-1.1-5.3L22.7,40l-3.3-2.9l-3.8,1l14.9,8.6C40.4,43.9,47.7,34.7,47.7,23.8z"/>
</g>
</svg>
